<svg width="80" height="80" viewBox="0 0 80 80" fill="none" xmlns="http://www.w3.org/2000/svg"><g clip-path="url(#clip0_1184_1267)"><path d="M10 8C10 3.58172 13.5817 0 18 0H44L70 26V72C70 76.4183 66.4183 80 62 80H18C13.5817 80 10 76.4183 10 72V8Z" fill="#2B8F65"/><path d="M50 26H70L44 0V20C44 23.3137 46.6863 26 50 26Z" fill="white" fill-opacity="0.5"/></g><path d="M28.4312 64.18C27.4952 64.18 26.6312 64.018 25.8392 63.694C25.0472 63.358 24.3572 62.89 23.7692 62.29C23.1932 61.69 22.7432 60.982 22.4192 60.166C22.0952 59.338 21.9332 58.438 21.9332 57.466C21.9332 56.494 22.0892 55.606 22.4012 54.802C22.7252 53.998 23.1752 53.302 23.7512 52.714C24.3392 52.114 25.0292 51.658 25.8212 51.346C26.6132 51.022 27.4832 50.86 28.4312 50.86C29.4992 50.86 30.4592 51.07 31.3112 51.49C32.1752 51.898 32.8772 52.48 33.4172 53.236C33.9692 53.98 34.3052 54.856 34.4252 55.864H31.7252C31.5692 54.94 31.1912 54.244 30.5912 53.776C29.9912 53.296 29.2772 53.056 28.4492 53.056C27.7172 53.056 27.0692 53.23 26.5052 53.578C25.9532 53.926 25.5212 54.43 25.2092 55.09C24.8972 55.738 24.7412 56.524 24.7412 57.448C24.7412 58.384 24.8972 59.194 25.2092 59.878C25.5332 60.55 25.9772 61.072 26.5412 61.444C27.1052 61.804 27.7532 61.984 28.4852 61.984C29.2652 61.984 29.9552 61.75 30.5552 61.282C31.1552 60.814 31.5452 60.118 31.7252 59.194H34.4612C34.3052 60.202 33.9512 61.084 33.3992 61.84C32.8472 62.584 32.1452 63.16 31.2932 63.568C30.4412 63.976 29.4872 64.18 28.4312 64.18ZM40.7612 64.162C39.0812 64.162 37.7372 63.79 36.7292 63.046C35.7212 62.29 35.1332 61.228 34.9652 59.86H37.6292C37.7132 60.556 38.0492 61.108 38.6372 61.516C39.2252 61.912 39.9752 62.11 40.8872 62.11C41.6312 62.11 42.2012 61.978 42.5972 61.714C43.0052 61.45 43.2092 61.096 43.2092 60.652C43.2092 60.232 43.0892 59.896 42.8492 59.644C42.6092 59.38 42.1952 59.17 41.6072 59.014L39.1952 58.348C37.9592 58 37.0532 57.526 36.4772 56.926C35.9132 56.314 35.6312 55.552 35.6312 54.64C35.6312 53.86 35.8292 53.188 36.2252 52.624C36.6332 52.048 37.2032 51.61 37.9352 51.31C38.6672 50.998 39.5252 50.842 40.5092 50.842C42.0212 50.842 43.2272 51.202 44.1272 51.922C45.0272 52.63 45.5372 53.572 45.6572 54.748H42.9932C42.8732 54.112 42.5792 53.644 42.1112 53.344C41.6552 53.044 41.0672 52.894 40.3472 52.894C39.7232 52.894 39.2252 53.014 38.8532 53.254C38.4812 53.494 38.2952 53.818 38.2952 54.226C38.2952 54.538 38.3972 54.826 38.6012 55.09C38.8052 55.342 39.2312 55.558 39.8792 55.738L42.2912 56.404C43.5632 56.752 44.4752 57.232 45.0272 57.844C45.5912 58.444 45.8732 59.206 45.8732 60.13C45.8732 61.426 45.4232 62.422 44.5232 63.118C43.6232 63.814 42.3692 64.162 40.7612 64.162ZM50.4289 64L45.7849 51.04H48.6649L52.2109 61.84H51.8689L55.4329 51.04H58.1689L53.5249 64H50.4289Z" fill="white"/><defs><clipPath id="clip0_1184_1267"><rect width="60" height="80" fill="white" transform="translate(10)"/></clipPath></defs></svg>