<svg width="80" height="80" viewBox="0 0 80 80" fill="none" xmlns="http://www.w3.org/2000/svg"><g clip-path="url(#clip0_1184_1273)"><path d="M10 8C10 3.58172 13.5817 0 18 0H44L70 26V72C70 76.4183 66.4183 80 62 80H18C13.5817 80 10 76.4183 10 72V8Z" fill="#254DDA"/><path d="M50 26H70L44 0V20C44 23.3137 46.6863 26 50 26Z" fill="white" fill-opacity="0.5"/></g><path d="M22.6307 64V61.84H25.9067C26.8427 61.84 27.6347 61.654 28.2827 61.282C28.9427 60.898 29.4407 60.376 29.7767 59.716C30.1247 59.056 30.2987 58.3 30.2987 57.448C30.2987 56.608 30.1307 55.87 29.7947 55.234C29.4587 54.598 28.9607 54.1 28.3007 53.74C27.6527 53.38 26.8547 53.2 25.9067 53.2H22.6847V51.04H25.9067C27.3587 51.04 28.6247 51.304 29.7047 51.832C30.7847 52.348 31.6187 53.092 32.2067 54.064C32.8067 55.024 33.1067 56.164 33.1067 57.484C33.1067 58.804 32.8067 59.956 32.2067 60.94C31.6067 61.912 30.7667 62.668 29.6867 63.208C28.6187 63.736 27.3647 64 25.9247 64H22.6307ZM20.9387 64V51.04H23.7107V64H20.9387ZM40.5541 64.18C39.5941 64.18 38.7061 64.018 37.8901 63.694C37.0861 63.37 36.3841 62.914 35.7841 62.326C35.1961 61.726 34.7341 61.018 34.3981 60.202C34.0741 59.374 33.9121 58.462 33.9121 57.466C33.9121 56.146 34.1941 54.994 34.7581 54.01C35.3221 53.014 36.1021 52.24 37.0981 51.688C38.1061 51.136 39.2521 50.86 40.5361 50.86C41.8441 50.86 42.9961 51.136 43.9921 51.688C44.9881 52.24 45.7681 53.014 46.3321 54.01C46.9081 55.006 47.1961 56.164 47.1961 57.484C47.1961 58.468 47.0281 59.374 46.6921 60.202C46.3681 61.018 45.9061 61.726 45.3061 62.326C44.7181 62.914 44.0161 63.37 43.2001 63.694C42.3961 64.018 41.5141 64.18 40.5541 64.18ZM40.5361 61.984C41.2921 61.984 41.9581 61.792 42.5341 61.408C43.1101 61.024 43.5601 60.496 43.8841 59.824C44.2201 59.14 44.3881 58.348 44.3881 57.448C44.3881 56.56 44.2261 55.786 43.9021 55.126C43.5781 54.466 43.1281 53.956 42.5521 53.596C41.9761 53.236 41.3041 53.056 40.5361 53.056C39.7801 53.056 39.1141 53.236 38.5381 53.596C37.9621 53.956 37.5121 54.466 37.1881 55.126C36.8761 55.774 36.7201 56.548 36.7201 57.448C36.7201 58.36 36.8821 59.158 37.2061 59.842C37.5301 60.514 37.9801 61.042 38.5561 61.426C39.1321 61.798 39.7921 61.984 40.5361 61.984ZM54.4993 64.18C53.5633 64.18 52.6993 64.018 51.9073 63.694C51.1153 63.358 50.4253 62.89 49.8373 62.29C49.2613 61.69 48.8113 60.982 48.4873 60.166C48.1633 59.338 48.0013 58.438 48.0013 57.466C48.0013 56.494 48.1573 55.606 48.4693 54.802C48.7933 53.998 49.2433 53.302 49.8193 52.714C50.4073 52.114 51.0973 51.658 51.8893 51.346C52.6813 51.022 53.5513 50.86 54.4993 50.86C55.5673 50.86 56.5273 51.07 57.3793 51.49C58.2433 51.898 58.9453 52.48 59.4853 53.236C60.0373 53.98 60.3733 54.856 60.4933 55.864H57.7933C57.6373 54.94 57.2593 54.244 56.6593 53.776C56.0593 53.296 55.3453 53.056 54.5173 53.056C53.7853 53.056 53.1373 53.23 52.5733 53.578C52.0213 53.926 51.5893 54.43 51.2773 55.09C50.9653 55.738 50.8093 56.524 50.8093 57.448C50.8093 58.384 50.9653 59.194 51.2773 59.878C51.6013 60.55 52.0453 61.072 52.6093 61.444C53.1733 61.804 53.8213 61.984 54.5533 61.984C55.3333 61.984 56.0233 61.75 56.6233 61.282C57.2233 60.814 57.6133 60.118 57.7933 59.194H60.5293C60.3733 60.202 60.0193 61.084 59.4673 61.84C58.9153 62.584 58.2133 63.16 57.3613 63.568C56.5093 63.976 55.5553 64.18 54.4993 64.18Z" fill="white"/><defs><clipPath id="clip0_1184_1273"><rect width="60" height="80" fill="white" transform="translate(10)"/></clipPath></defs></svg>