<svg width="80" height="80" viewBox="0 0 80 80" fill="none" xmlns="http://www.w3.org/2000/svg"><g clip-path="url(#clip0_1184_1195)"><path d="M10 8C10 3.58172 13.5817 0 18 0H44L70 26V72C70 76.4183 66.4183 80 62 80H18C13.5817 80 10 76.4183 10 72V8Z" fill="#254DDA"/><path d="M50 26H70L44 0V20C44 23.3137 46.6863 26 50 26Z" fill="white" fill-opacity="0.5"/></g><path d="M21.4354 64.18C20.9794 64.18 20.5414 64.144 20.1214 64.072C19.7014 64.012 19.3954 63.934 19.2034 63.838V61.714C19.4194 61.798 19.6774 61.87 19.9774 61.93C20.2774 61.99 20.5834 62.02 20.8954 62.02C21.5674 62.02 22.0534 61.912 22.3534 61.696C22.6654 61.468 22.8214 61.06 22.8214 60.472V51.04H25.5934V60.598C25.5934 61.798 25.2394 62.698 24.5314 63.298C23.8234 63.886 22.7914 64.18 21.4354 64.18ZM26.9989 64V51.04H33.1549C34.1149 51.04 34.9369 51.208 35.6209 51.544C36.3169 51.88 36.8509 52.348 37.2229 52.948C37.6069 53.548 37.7989 54.25 37.7989 55.054C37.7989 55.858 37.6069 56.566 37.2229 57.178C36.8389 57.79 36.2989 58.27 35.6029 58.618C34.9189 58.954 34.1029 59.122 33.1549 59.122H29.1949V56.998H33.0109C33.6469 56.998 34.1389 56.824 34.4869 56.476C34.8469 56.116 35.0269 55.648 35.0269 55.072C35.0269 54.496 34.8469 54.034 34.4869 53.686C34.1389 53.338 33.6469 53.164 33.0109 53.164H29.7709V64H26.9989ZM38.7327 64V51.04H41.5047V64H38.7327ZM40.0287 64V61.876H48.3807V64H40.0287ZM40.0287 58.42V56.332H47.7507V58.42H40.0287ZM40.0287 53.164V51.04H48.1647V53.164H40.0287ZM55.5561 64.18C54.1521 64.18 52.9461 63.904 51.9381 63.352C50.9301 62.8 50.1501 62.026 49.5981 61.03C49.0581 60.034 48.7881 58.87 48.7881 57.538C48.7881 56.218 49.0641 55.06 49.6161 54.064C50.1681 53.056 50.9301 52.27 51.9021 51.706C52.8861 51.142 54.0261 50.86 55.3221 50.86C56.3901 50.86 57.3441 51.052 58.1841 51.436C59.0361 51.82 59.7201 52.348 60.2361 53.02C60.7641 53.68 61.0761 54.448 61.1721 55.324H58.4001C58.2801 54.616 57.9441 54.064 57.3921 53.668C56.8521 53.26 56.1741 53.056 55.3581 53.056C54.6021 53.056 53.9421 53.236 53.3781 53.596C52.8141 53.944 52.3761 54.448 52.0641 55.108C51.7521 55.768 51.5961 56.56 51.5961 57.484C51.5961 58.444 51.7521 59.266 52.0641 59.95C52.3761 60.622 52.8321 61.138 53.4321 61.498C54.0441 61.846 54.7941 62.02 55.6821 62.02C56.4021 62.02 57.0141 61.93 57.5181 61.75C58.0221 61.57 58.4061 61.318 58.6701 60.994L61.2981 62.038C60.6021 62.734 59.7921 63.268 58.8681 63.64C57.9561 64 56.8521 64.18 55.5561 64.18ZM58.5261 62.038V58.474L59.0841 59.032H55.6641V56.908H61.2981V62.038H58.5261Z" fill="white"/><defs><clipPath id="clip0_1184_1195"><rect width="60" height="80" fill="white" transform="translate(10)"/></clipPath></defs></svg>