<svg width="80" height="80" viewBox="0 0 80 80" fill="none" xmlns="http://www.w3.org/2000/svg"><g clip-path="url(#clip0_1184_1198)"><path d="M10 8C10 3.58172 13.5817 0 18 0H44L70 26V72C70 76.4183 66.4183 80 62 80H18C13.5817 80 10 76.4183 10 72V8Z" fill="#254DDA"/><path d="M50 26H70L44 0V20C44 23.3137 46.6863 26 50 26Z" fill="white" fill-opacity="0.5"/></g><path d="M26.6783 64.18C26.2223 64.18 25.7843 64.144 25.3643 64.072C24.9443 64.012 24.6383 63.934 24.4463 63.838V61.714C24.6623 61.798 24.9203 61.87 25.2203 61.93C25.5203 61.99 25.8263 62.02 26.1383 62.02C26.8103 62.02 27.2963 61.912 27.5963 61.696C27.9083 61.468 28.0643 61.06 28.0643 60.472V51.04H30.8363V60.598C30.8363 61.798 30.4823 62.698 29.7743 63.298C29.0663 63.886 28.0343 64.18 26.6783 64.18ZM32.2418 64V51.04H38.3978C39.3578 51.04 40.1798 51.208 40.8638 51.544C41.5598 51.88 42.0938 52.348 42.4658 52.948C42.8498 53.548 43.0418 54.25 43.0418 55.054C43.0418 55.858 42.8498 56.566 42.4658 57.178C42.0818 57.79 41.5418 58.27 40.8458 58.618C40.1618 58.954 39.3458 59.122 38.3978 59.122H34.4378V56.998H38.2538C38.8898 56.998 39.3818 56.824 39.7298 56.476C40.0898 56.116 40.2698 55.648 40.2698 55.072C40.2698 54.496 40.0898 54.034 39.7298 53.686C39.3818 53.338 38.8898 53.164 38.2538 53.164H35.0138V64H32.2418ZM50.3132 64.18C48.9092 64.18 47.7032 63.904 46.6952 63.352C45.6872 62.8 44.9072 62.026 44.3552 61.03C43.8152 60.034 43.5452 58.87 43.5452 57.538C43.5452 56.218 43.8212 55.06 44.3732 54.064C44.9252 53.056 45.6872 52.27 46.6592 51.706C47.6432 51.142 48.7832 50.86 50.0792 50.86C51.1472 50.86 52.1012 51.052 52.9412 51.436C53.7932 51.82 54.4772 52.348 54.9932 53.02C55.5212 53.68 55.8332 54.448 55.9292 55.324H53.1572C53.0372 54.616 52.7012 54.064 52.1492 53.668C51.6092 53.26 50.9312 53.056 50.1152 53.056C49.3592 53.056 48.6992 53.236 48.1352 53.596C47.5712 53.944 47.1332 54.448 46.8212 55.108C46.5092 55.768 46.3532 56.56 46.3532 57.484C46.3532 58.444 46.5092 59.266 46.8212 59.95C47.1332 60.622 47.5892 61.138 48.1892 61.498C48.8012 61.846 49.5512 62.02 50.4392 62.02C51.1592 62.02 51.7712 61.93 52.2752 61.75C52.7792 61.57 53.1632 61.318 53.4272 60.994L56.0552 62.038C55.3592 62.734 54.5492 63.268 53.6252 63.64C52.7132 64 51.6092 64.18 50.3132 64.18ZM53.2832 62.038V58.474L53.8412 59.032H50.4212V56.908H56.0552V62.038H53.2832Z" fill="white"/><defs><clipPath id="clip0_1184_1198"><rect width="60" height="80" fill="white" transform="translate(10)"/></clipPath></defs></svg>