<svg width="80" height="80" viewBox="0 0 80 80" fill="none" xmlns="http://www.w3.org/2000/svg"><g clip-path="url(#clip0_1184_1261)"><path d="M10 8C10 3.58172 13.5817 0 18 0H44L70 26V72C70 76.4183 66.4183 80 62 80H18C13.5817 80 10 76.4183 10 72V8Z" fill="#E74C3C"/><path d="M50 26H70L44 0V20C44 23.3137 46.6863 26 50 26Z" fill="white" fill-opacity="0.5"/></g><path d="M23.1018 64V51.04H29.2578C30.2178 51.04 31.0398 51.208 31.7238 51.544C32.4198 51.88 32.9538 52.348 33.3258 52.948C33.7098 53.548 33.9018 54.25 33.9018 55.054C33.9018 55.858 33.7098 56.566 33.3258 57.178C32.9418 57.79 32.4018 58.27 31.7058 58.618C31.0218 58.954 30.2058 59.122 29.2578 59.122H25.2978V56.998H29.1138C29.7498 56.998 30.2418 56.824 30.5898 56.476C30.9498 56.116 31.1298 55.648 31.1298 55.072C31.1298 54.496 30.9498 54.034 30.5898 53.686C30.2418 53.338 29.7498 53.164 29.1138 53.164H25.8738V64H23.1018ZM36.5275 64V61.84H39.8035C40.7395 61.84 41.5315 61.654 42.1795 61.282C42.8395 60.898 43.3375 60.376 43.6735 59.716C44.0215 59.056 44.1955 58.3 44.1955 57.448C44.1955 56.608 44.0275 55.87 43.6915 55.234C43.3555 54.598 42.8575 54.1 42.1975 53.74C41.5495 53.38 40.7515 53.2 39.8035 53.2H36.5815V51.04H39.8035C41.2555 51.04 42.5215 51.304 43.6015 51.832C44.6815 52.348 45.5155 53.092 46.1035 54.064C46.7035 55.024 47.0035 56.164 47.0035 57.484C47.0035 58.804 46.7035 59.956 46.1035 60.94C45.5035 61.912 44.6635 62.668 43.5835 63.208C42.5155 63.736 41.2615 64 39.8215 64H36.5275ZM34.8355 64V51.04H37.6075V64H34.8355ZM48.081 64V51.04H50.853V64H48.081ZM49.377 58.978V56.854H56.811V58.978H49.377ZM49.377 53.164V51.04H57.225V53.164H49.377Z" fill="white"/><defs><clipPath id="clip0_1184_1261"><rect width="60" height="80" fill="white" transform="translate(10)"/></clipPath></defs></svg>