<svg width="80" height="80" viewBox="0 0 80 80" fill="none" xmlns="http://www.w3.org/2000/svg"><g clip-path="url(#clip0_1184_1192)"><path d="M10 8C10 3.58172 13.5817 0 18 0H44L70 26V72C70 76.4183 66.4183 80 62 80H18C13.5817 80 10 76.4183 10 72V8Z" fill="#254DDA"/><path d="M50 26H70L44 0V20C44 23.3137 46.6863 26 50 26Z" fill="white" fill-opacity="0.5"/></g><path d="M22.3713 64V51.04H28.5273C29.4873 51.04 30.3093 51.208 30.9933 51.544C31.6893 51.88 32.2233 52.348 32.5953 52.948C32.9793 53.548 33.1713 54.25 33.1713 55.054C33.1713 55.858 32.9793 56.566 32.5953 57.178C32.2113 57.79 31.6713 58.27 30.9753 58.618C30.2913 58.954 29.4753 59.122 28.5273 59.122H24.5673V56.998H28.3833C29.0193 56.998 29.5113 56.824 29.8593 56.476C30.2193 56.116 30.3993 55.648 30.3993 55.072C30.3993 54.496 30.2193 54.034 29.8593 53.686C29.5113 53.338 29.0193 53.164 28.3833 53.164H25.1433V64H22.3713ZM34.1051 64V51.04H37.6871L43.4471 62.488L42.5651 62.704V51.04H45.2651V64H41.6831L35.9231 52.552L36.8051 52.336V64H34.1051ZM53.1082 64.18C51.7042 64.18 50.4982 63.904 49.4902 63.352C48.4822 62.8 47.7022 62.026 47.1502 61.03C46.6102 60.034 46.3402 58.87 46.3402 57.538C46.3402 56.218 46.6162 55.06 47.1682 54.064C47.7202 53.056 48.4822 52.27 49.4542 51.706C50.4382 51.142 51.5782 50.86 52.8742 50.86C53.9422 50.86 54.8962 51.052 55.7362 51.436C56.5882 51.82 57.2722 52.348 57.7882 53.02C58.3162 53.68 58.6282 54.448 58.7242 55.324H55.9522C55.8322 54.616 55.4962 54.064 54.9442 53.668C54.4042 53.26 53.7262 53.056 52.9102 53.056C52.1542 53.056 51.4942 53.236 50.9302 53.596C50.3662 53.944 49.9282 54.448 49.6162 55.108C49.3042 55.768 49.1482 56.56 49.1482 57.484C49.1482 58.444 49.3042 59.266 49.6162 59.95C49.9282 60.622 50.3842 61.138 50.9842 61.498C51.5962 61.846 52.3462 62.02 53.2342 62.02C53.9542 62.02 54.5662 61.93 55.0702 61.75C55.5742 61.57 55.9582 61.318 56.2222 60.994L58.8502 62.038C58.1542 62.734 57.3442 63.268 56.4202 63.64C55.5082 64 54.4042 64.18 53.1082 64.18ZM56.0782 62.038V58.474L56.6362 59.032H53.2162V56.908H58.8502V62.038H56.0782Z" fill="white"/><defs><clipPath id="clip0_1184_1192"><rect width="60" height="80" fill="white" transform="translate(10)"/></clipPath></defs></svg>