<svg width="80" height="80" viewBox="0 0 80 80" fill="none" xmlns="http://www.w3.org/2000/svg">
<g clip-path="url(#clip0_1184_1270)">
<path d="M10 8C10 3.58172 13.5817 0 18 0H44L70 26V72C70 76.4183 66.4183 80 62 80H18C13.5817 80 10 76.4183 10 72V8Z" fill="#E74C3C"/>
<path d="M50 26H70L44 0V20C44 23.3137 46.6863 26 50 26Z" fill="white" fill-opacity="0.5"/>
</g>
<path d="M23.1721 64V51.04H29.3281C30.2881 51.04 31.1101 51.208 31.7941 51.544C32.4901 51.88 33.0241 52.348 33.3961 52.948C33.7801 53.548 33.9721 54.25 33.9721 55.054C33.9721 55.858 33.7801 56.566 33.3961 57.178C33.0121 57.79 32.4721 58.27 31.7761 58.618C31.0921 58.954 30.2761 59.122 29.3281 59.122H25.3681V56.998H29.1841C29.8201 56.998 30.3121 56.824 30.6601 56.476C31.0201 56.116 31.2001 55.648 31.2001 55.072C31.2001 54.496 31.0201 54.034 30.6601 53.686C30.3121 53.338 29.8201 53.164 29.1841 53.164H25.9441V64H23.1721ZM34.9059 64V51.04H41.0619C42.0219 51.04 42.8439 51.208 43.5279 51.544C44.2239 51.88 44.7579 52.348 45.1299 52.948C45.5139 53.548 45.7059 54.25 45.7059 55.054C45.7059 55.858 45.5139 56.566 45.1299 57.178C44.7459 57.79 44.2059 58.27 43.5099 58.618C42.8259 58.954 42.0099 59.122 41.0619 59.122H37.1019V56.998H40.9179C41.5539 56.998 42.0459 56.824 42.3939 56.476C42.7539 56.116 42.9339 55.648 42.9339 55.072C42.9339 54.496 42.7539 54.034 42.3939 53.686C42.0459 53.338 41.5539 53.164 40.9179 53.164H37.6779V64H34.9059ZM50.2961 64V53.164H46.0661V51.04H57.2981V53.164H53.0681V64H50.2961Z" fill="white"/>
<defs>
<clipPath id="clip0_1184_1270">
<rect width="60" height="80" fill="white" transform="translate(10)"/>
</clipPath>
</defs>
</svg>
