<svg width="80" height="80" viewBox="0 0 80 80" fill="none" xmlns="http://www.w3.org/2000/svg"><g clip-path="url(#clip0_1184_1186)"><path d="M10 8C10 3.58172 13.5817 0 18 0H44L70 26V72C70 76.4183 66.4183 80 62 80H18C13.5817 80 10 76.4183 10 72V8Z" fill="#254DDA"/><path d="M50 26H70L44 0V20C44 23.3137 46.6863 26 50 26Z" fill="white" fill-opacity="0.5"/></g><path d="M17.5687 64L13.9147 51.04H16.7227L19.7467 62.902H18.8647L21.5647 51.04H24.7147L27.3787 62.902H26.5147L29.5567 51.04H32.2387L28.5847 64H25.4887L22.7347 52.372H23.4547L20.6647 64H17.5687ZM33.3896 64V51.04H36.1616V64H33.3896ZM34.6856 64V61.876H43.0376V64H34.6856ZM34.6856 58.42V56.332H42.4076V58.42H34.6856ZM34.6856 53.164V51.04H42.8216V53.164H34.6856ZM46.4421 64V62.02H49.7901C50.3901 62.02 50.8401 61.858 51.1401 61.534C51.4521 61.198 51.6081 60.736 51.6081 60.148C51.6081 59.548 51.4401 59.074 51.1041 58.726C50.7801 58.378 50.3121 58.204 49.7001 58.204H46.4421V56.224H49.5561C50.1201 56.224 50.5461 56.092 50.8341 55.828C51.1341 55.552 51.2841 55.15 51.2841 54.622C51.2841 54.094 51.1401 53.698 50.8521 53.434C50.5761 53.158 50.1621 53.02 49.6101 53.02H46.4421V51.04H50.2041C51.3561 51.04 52.2861 51.334 52.9941 51.922C53.7021 52.51 54.0561 53.308 54.0561 54.316C54.0561 54.952 53.9061 55.498 53.6061 55.954C53.3061 56.41 52.9041 56.758 52.4001 56.998C51.8961 57.238 51.3321 57.358 50.7081 57.358L50.7981 56.98C51.4701 56.98 52.0761 57.124 52.6161 57.412C53.1681 57.7 53.6061 58.108 53.9301 58.636C54.2541 59.152 54.4161 59.764 54.4161 60.472C54.4161 61.18 54.2481 61.804 53.9121 62.344C53.5881 62.872 53.1261 63.28 52.5261 63.568C51.9381 63.856 51.2421 64 50.4381 64H46.4421ZM44.1741 64V51.04H46.9461V64H44.1741ZM55.5036 64V51.04H61.6596C62.6196 51.04 63.4416 51.208 64.1256 51.544C64.8216 51.88 65.3556 52.348 65.7276 52.948C66.1116 53.548 66.3036 54.25 66.3036 55.054C66.3036 55.858 66.1116 56.566 65.7276 57.178C65.3436 57.79 64.8036 58.27 64.1076 58.618C63.4236 58.954 62.6076 59.122 61.6596 59.122H57.6996V56.998H61.5156C62.1516 56.998 62.6436 56.824 62.9916 56.476C63.3516 56.116 63.5316 55.648 63.5316 55.072C63.5316 54.496 63.3516 54.034 62.9916 53.686C62.6436 53.338 62.1516 53.164 61.5156 53.164H58.2756V64H55.5036Z" fill="white"/><defs><clipPath id="clip0_1184_1186"><rect width="60" height="80" fill="white" transform="translate(10)"/></clipPath></defs></svg>