<svg width="80" height="80" viewBox="0 0 80 80" fill="none" xmlns="http://www.w3.org/2000/svg"><g clip-path="url(#clip0_1184_1264)"><path d="M10 8C10 3.58172 13.5817 0 18 0H44L70 26V72C70 76.4183 66.4183 80 62 80H18C13.5817 80 10 76.4183 10 72V8Z" fill="#2B8F65"/><path d="M50 26H70L44 0V20C44 23.3137 46.6863 26 50 26Z" fill="white" fill-opacity="0.5"/></g><path d="M32.3511 64L28.7691 58.33L23.7651 51.04H27.0051L30.3711 56.386L35.5911 64H32.3511ZM29.1651 56.368L32.6571 51.04H35.5911L30.0831 58.69L29.1651 56.368ZM29.7951 58.762L26.3571 64H23.4231L28.8771 56.44L29.7951 58.762ZM36.4879 64V51.04H39.2599V64H36.4879ZM37.7839 64V61.876H45.4879V64H37.7839ZM51.4227 64.162C49.7427 64.162 48.3987 63.79 47.3907 63.046C46.3827 62.29 45.7947 61.228 45.6267 59.86H48.2907C48.3747 60.556 48.7107 61.108 49.2987 61.516C49.8867 61.912 50.6367 62.11 51.5487 62.11C52.2927 62.11 52.8627 61.978 53.2587 61.714C53.6667 61.45 53.8707 61.096 53.8707 60.652C53.8707 60.232 53.7507 59.896 53.5107 59.644C53.2707 59.38 52.8567 59.17 52.2687 59.014L49.8567 58.348C48.6207 58 47.7147 57.526 47.1387 56.926C46.5747 56.314 46.2927 55.552 46.2927 54.64C46.2927 53.86 46.4907 53.188 46.8867 52.624C47.2947 52.048 47.8647 51.61 48.5967 51.31C49.3287 50.998 50.1867 50.842 51.1707 50.842C52.6827 50.842 53.8887 51.202 54.7887 51.922C55.6887 52.63 56.1987 53.572 56.3187 54.748H53.6547C53.5347 54.112 53.2407 53.644 52.7727 53.344C52.3167 53.044 51.7287 52.894 51.0087 52.894C50.3847 52.894 49.8867 53.014 49.5147 53.254C49.1427 53.494 48.9567 53.818 48.9567 54.226C48.9567 54.538 49.0587 54.826 49.2627 55.09C49.4667 55.342 49.8927 55.558 50.5407 55.738L52.9527 56.404C54.2247 56.752 55.1367 57.232 55.6887 57.844C56.2527 58.444 56.5347 59.206 56.5347 60.13C56.5347 61.426 56.0847 62.422 55.1847 63.118C54.2847 63.814 53.0307 64.162 51.4227 64.162Z" fill="white"/><defs><clipPath id="clip0_1184_1264"><rect width="60" height="80" fill="white" transform="translate(10)"/></clipPath></defs></svg>