<svg xmlns="http://www.w3.org/2000/svg" width="24" height="24" viewBox="0 0 24 24" fill="none"><path fill-rule="evenodd" clip-rule="evenodd" d="M3.25 5A2.75 2.75 0 0 1 6 2.25h12a2.75 2.75 0 0 1 .75 5.396V19A2.75 2.75 0 0 1 16 21.75H8A2.75 2.75 0 0 1 5.25 19V7.646A2.75 2.75 0 0 1 3.25 5m3.5 2.75V19c0 .69.56 1.25 1.25 1.25h8c.69 0 1.25-.56 1.25-1.25v-1.25H12A2.75 2.75 0 0 1 9.25 15v-2A2.75 2.75 0 0 1 12 10.25h5.25v-2.5zm10.5 4H12c-.69 0-1.25.56-1.25 1.25v2c0 .69.56 1.25 1.25 1.25h5.25v-1.5H15a.75.75 0 0 1 0-1.5h2.25zm2-6.75c0-.69-.56-1.25-1.25-1.25H6a1.25 1.25 0 1 0 0 2.5h12c.69 0 1.25-.56 1.25-1.25" fill="#070F2C"/></svg>