<svg xmlns="http://www.w3.org/2000/svg" width="16" height="16" viewBox="0 0 16 16" fill="none">
  <path fill-rule="evenodd" clip-rule="evenodd" d="M8 2.5C4.96243 2.5 2.5 4.96243 2.5 8C2.5 11.0376 4.96243 13.5 8 13.5C11.0376 13.5 13.5 11.0376 13.5 8C13.5 4.96243 11.0376 2.5 8 2.5ZM1.5 8C1.5 4.41015 4.41015 1.5 8 1.5C11.5899 1.5 14.5 4.41015 14.5 8C14.5 11.5899 11.5899 14.5 8 14.5C4.41015 14.5 1.5 11.5899 1.5 8Z" fill="#F8F8F8"/>
  <path fill-rule="evenodd" clip-rule="evenodd" d="M8 4.16675C8.27614 4.16675 8.5 4.39061 8.5 4.66675V7.17604C8.5 7.49168 8.67834 7.78023 8.96066 7.92139L10.8903 8.8862C11.1373 9.0097 11.2374 9.31003 11.1139 9.55702C10.9904 9.80401 10.69 9.90412 10.4431 9.78063L8.51344 8.81582C7.89234 8.50527 7.5 7.87045 7.5 7.17604V4.66675C7.5 4.39061 7.72386 4.16675 8 4.16675Z" fill="#F8F8F8"/>
</svg>