<svg xmlns="http://www.w3.org/2000/svg" width="24" height="24" viewBox="0 0 24 24" fill="none"><path fill-rule="evenodd" clip-rule="evenodd" d="M5 6.75c-.69 0-1.25.56-1.25 1.25v1.25h3.5v-2.5zm3.75 0v2.5h11.5V8c0-.69-.56-1.25-1.25-1.25zm11.5 4H8.75v2.5h11.5zM21.75 8A2.75 2.75 0 0 0 19 5.25H5A2.75 2.75 0 0 0 2.25 8v8A2.75 2.75 0 0 0 5 18.75h14A2.75 2.75 0 0 0 21.75 16zm-1.5 6.75H8.75v2.5H19c.69 0 1.25-.56 1.25-1.25zm-13 2.5v-2.5h-3.5V16c0 .69.56 1.25 1.25 1.25zm-3.5-4h3.5v-2.5h-3.5z" fill="#070F2C"/></svg>