<svg xmlns="http://www.w3.org/2000/svg" width="24" height="24" viewBox="0 0 24 24" fill="none"><path fill-rule="evenodd" clip-rule="evenodd" d="M3.894 6.333A2.75 2.75 0 0 1 6.562 4.25h10.876a2.75 2.75 0 0 1 2.668 2.083l1.622 6.485q.021.09.022.182v4A2.75 2.75 0 0 1 19 19.75H5A2.75 2.75 0 0 1 2.25 17v-4a.8.8 0 0 1 .022-.182zm2.668-.583a1.25 1.25 0 0 0-1.213.947L3.96 12.25h16.078L18.65 6.697a1.25 1.25 0 0 0-1.213-.947zm13.688 8H3.75V17c0 .69.56 1.25 1.25 1.25h14c.69 0 1.25-.56 1.25-1.25zM5.25 16a.75.75 0 0 1 .75-.75h1a.75.75 0 0 1 0 1.5H6a.75.75 0 0 1-.75-.75" fill="#070F2C"/></svg>