<svg xmlns="http://www.w3.org/2000/svg" width="24" height="24" viewBox="0 0 24 24" fill="none"><path fill-rule="evenodd" clip-rule="evenodd" d="M6.46 7.124C5.265 8.464 4.75 10.042 4.75 11v2.25H7A2.75 2.75 0 0 1 9.75 16v2A2.75 2.75 0 0 1 7 20.75H6A2.75 2.75 0 0 1 3.25 18v-7c0-1.375.685-3.298 2.09-4.874C6.77 4.522 8.968 3.25 12 3.25s5.23 1.272 6.66 2.876c1.405 1.576 2.09 3.499 2.09 4.874v7A2.75 2.75 0 0 1 18 20.75h-1A2.75 2.75 0 0 1 14.25 18v-2A2.75 2.75 0 0 1 17 13.25h2.25V11c0-.958-.515-2.536-1.71-3.876C16.37 5.812 14.57 4.75 12 4.75S7.63 5.812 6.46 7.124m12.79 7.626H17c-.69 0-1.25.56-1.25 1.25v2c0 .69.56 1.25 1.25 1.25h1c.69 0 1.25-.56 1.25-1.25zm-14.5 0V18c0 .69.56 1.25 1.25 1.25h1c.69 0 1.25-.56 1.25-1.25v-2c0-.69-.56-1.25-1.25-1.25z" fill="#070F2C"/></svg>