<svg xmlns="http://www.w3.org/2000/svg" width="24" height="24" viewBox="0 0 24 24" fill="none"><path fill-rule="evenodd" clip-rule="evenodd" d="M4 18.75A2.75 2.75 0 0 1 1.25 16V8A2.75 2.75 0 0 1 4 5.25h16A2.75 2.75 0 0 1 22.75 8v8A2.75 2.75 0 0 1 20 18.75zM2.75 16c0 .69.56 1.25 1.25 1.25h16c.69 0 1.25-.56 1.25-1.25V8c0-.69-.56-1.25-1.25-1.25H4c-.69 0-1.25.56-1.25 1.25zm6.5-2a.75.75 0 0 1 .75-.75h4a.75.75 0 0 1 0 1.5h-4a.75.75 0 0 1-.75-.75" fill="#070F2C"/><path fill-rule="evenodd" clip-rule="evenodd" d="M13.25 10a.75.75 0 0 1 .75-.75h.01a.75.75 0 0 1 0 1.5H14a.75.75 0 0 1-.75-.75m4 0a.75.75 0 0 1 .75-.75h.01a.75.75 0 0 1 0 1.5H18a.75.75 0 0 1-.75-.75m-8 0a.75.75 0 0 1 .75-.75h.01a.75.75 0 0 1 0 1.5H10a.75.75 0 0 1-.75-.75m-4 0A.75.75 0 0 1 6 9.25h.01a.75.75 0 0 1 0 1.5H6a.75.75 0 0 1-.75-.75m0 4a.75.75 0 0 1 .75-.75h.01a.75.75 0 0 1 0 1.5H6a.75.75 0 0 1-.75-.75m12 0a.75.75 0 0 1 .75-.75h.01a.75.75 0 0 1 0 1.5H18a.75.75 0 0 1-.75-.75" fill="#070F2C"/></svg>