<svg xmlns="http://www.w3.org/2000/svg" width="24" height="24" viewBox="0 0 24 24" fill="none"><path fill-rule="evenodd" clip-rule="evenodd" d="M3.25 6A2.75 2.75 0 0 1 6 3.25h12A2.75 2.75 0 0 1 20.75 6v8a.75.75 0 0 1-.75.75H4a.75.75 0 0 1-.75-.75zM6 4.75c-.69 0-1.25.56-1.25 1.25v7.25h14.5V6c0-.69-.56-1.25-1.25-1.25z" fill="#070F2C"/><path fill-rule="evenodd" clip-rule="evenodd" d="M3.33 13.665A.75.75 0 0 1 4 13.25h16a.75.75 0 0 1 .67.415l1.553 3.105c.915 1.829-.415 3.98-2.46 3.98H4.237c-2.044 0-3.374-2.151-2.46-3.98zm1.133 1.085-1.345 2.691a1.25 1.25 0 0 0 1.118 1.809h15.528a1.25 1.25 0 0 0 1.118-1.809l-1.346-2.691zM5.25 17a.75.75 0 0 1 .75-.75h2a.75.75 0 0 1 0 1.5H6a.75.75 0 0 1-.75-.75m5 0a.75.75 0 0 1 .75-.75h1a.75.75 0 0 1 0 1.5h-1a.75.75 0 0 1-.75-.75m4 0a.75.75 0 0 1 .75-.75h3a.75.75 0 0 1 0 1.5h-3a.75.75 0 0 1-.75-.75" fill="#070F2C"/></svg>