<svg xmlns="http://www.w3.org/2000/svg" width="24" height="24" viewBox="0 0 24 24" fill="none"><path fill-rule="evenodd" clip-rule="evenodd" d="M8 3.75c-.69 0-1.25.56-1.25 1.25v1.25h10.5V5c0-.69-.56-1.25-1.25-1.25zm10.75 2.5V5A2.75 2.75 0 0 0 16 2.25H8A2.75 2.75 0 0 0 5.25 5v1.25H5A2.75 2.75 0 0 0 2.25 9v6A2.75 2.75 0 0 0 5 17.75h1.25V19A2.75 2.75 0 0 0 9 21.75h6A2.75 2.75 0 0 0 17.75 19v-1.25H19A2.75 2.75 0 0 0 21.75 15V9A2.75 2.75 0 0 0 19 6.25zm-1 10H19c.69 0 1.25-.56 1.25-1.25V9c0-.69-.56-1.25-1.25-1.25H5c-.69 0-1.25.56-1.25 1.25v6c0 .69.56 1.25 1.25 1.25h1.25V15A2.75 2.75 0 0 1 9 12.25h6A2.75 2.75 0 0 1 17.75 15zM9 13.75c-.69 0-1.25.56-1.25 1.25v4c0 .69.56 1.25 1.25 1.25h6c.69 0 1.25-.56 1.25-1.25v-4c0-.69-.56-1.25-1.25-1.25z" fill="#070F2C"/><path fill-rule="evenodd" clip-rule="evenodd" d="M6.25 10A.75.75 0 0 1 7 9.25h1a.75.75 0 0 1 0 1.5H7a.75.75 0 0 1-.75-.75" fill="#070F2C"/></svg>