<svg width="20" height="20" viewBox="0 0 20 20" fill="none" xmlns="http://www.w3.org/2000/svg">
    <g id="remote">
        <path id="Vector 1025 (Stroke)" fill-rule="evenodd" clip-rule="evenodd"
            d="M7.49992 11.4584C6.92462 11.4584 6.45825 11.9247 6.45825 12.5V17.5C6.45825 17.8452 6.17843 18.125 5.83325 18.125C5.48807 18.125 5.20825 17.8452 5.20825 17.5V12.5C5.20825 11.2344 6.23427 10.2084 7.49992 10.2084H12.4999C13.7656 10.2084 14.7916 11.2344 14.7916 12.5V17.5C14.7916 17.8452 14.5118 18.125 14.1666 18.125C13.8214 18.125 13.5416 17.8452 13.5416 17.5V12.5C13.5416 11.9247 13.0752 11.4584 12.4999 11.4584H7.49992Z"
            fill="#070F2C" />
        <path id="Ellipse 652 (Stroke)" fill-rule="evenodd" clip-rule="evenodd"
            d="M9.99993 6.45837C8.84163 6.45837 7.81323 7.01376 7.16603 7.8754C6.95872 8.15139 6.56693 8.20708 6.29094 7.99977C6.01494 7.79246 5.95926 7.40067 6.16657 7.12468C7.03971 5.96224 8.43187 5.20837 9.99993 5.20837C11.568 5.20837 12.9602 5.96224 13.8333 7.12468C14.0406 7.40067 13.9849 7.79246 13.7089 7.99977C13.4329 8.20708 13.0412 8.15139 12.8338 7.8754C12.1866 7.01376 11.1582 6.45837 9.99993 6.45837Z"
            fill="#070F2C" />
        <path id="Ellipse 653 (Stroke)" fill-rule="evenodd" clip-rule="evenodd"
            d="M9.99999 3.125C7.7645 3.125 5.81178 4.3388 4.76621 6.14629C4.59337 6.44508 4.21104 6.54718 3.91225 6.37434C3.61346 6.2015 3.51136 5.81917 3.6842 5.52038C4.94402 3.34253 7.30025 1.875 9.99999 1.875C12.6997 1.875 15.056 3.34253 16.3158 5.52038C16.4886 5.81917 16.3865 6.2015 16.0877 6.37434C15.7889 6.54718 15.4066 6.44508 15.2338 6.14629C14.1882 4.3388 12.2355 3.125 9.99999 3.125Z"
            fill="#070F2C" />
        <path id="Vector (Stroke)" fill-rule="evenodd" clip-rule="evenodd"
            d="M9.375 14.1666C9.375 13.8214 9.65482 13.5416 10 13.5416H10.0083C10.3535 13.5416 10.6333 13.8214 10.6333 14.1666C10.6333 14.5118 10.3535 14.7916 10.0083 14.7916H10C9.65482 14.7916 9.375 14.5118 9.375 14.1666Z"
            fill="#070F2C" />
    </g>
</svg>