<svg xmlns="http://www.w3.org/2000/svg" width="24" height="24" viewBox="0 0 24 24" fill="none"><path fill-rule="evenodd" clip-rule="evenodd" d="M4 6.75c-.69 0-1.25.56-1.25 1.25v3.25h10.5V8c0-.69-.56-1.25-1.25-1.25zm9.25 6H2.75V16c0 .69.56 1.25 1.25 1.25h8c.69 0 1.25-.56 1.25-1.25zM1.25 8A2.75 2.75 0 0 1 4 5.25h8A2.75 2.75 0 0 1 14.75 8v8A2.75 2.75 0 0 1 12 18.75H4A2.75 2.75 0 0 1 1.25 16z" fill="#070F2C"/><path fill-rule="evenodd" clip-rule="evenodd" d="M4.25 9A.75.75 0 0 1 5 8.25h.01a.75.75 0 0 1 0 1.5H5A.75.75 0 0 1 4.25 9m0 6a.75.75 0 0 1 .75-.75h.01a.75.75 0 0 1 0 1.5H5a.75.75 0 0 1-.75-.75m3-6A.75.75 0 0 1 8 8.25h.01a.75.75 0 0 1 0 1.5H8A.75.75 0 0 1 7.25 9m0 6a.75.75 0 0 1 .75-.75h.01a.75.75 0 0 1 0 1.5H8a.75.75 0 0 1-.75-.75m12.048-9.53a.75.75 0 0 1 1.06 0 8.73 8.73 0 0 1 2.564 6.187c0 2.416-.98 4.604-2.563 6.187a.75.75 0 0 1-1.06-1.06 7.23 7.23 0 0 0 2.123-5.127 7.23 7.23 0 0 0-2.124-5.127.75.75 0 0 1 0-1.06M16.47 8.298a.75.75 0 0 1 1.06 0 4.74 4.74 0 0 1 1.392 3.359c0 1.311-.533 2.5-1.392 3.359a.75.75 0 1 1-1.06-1.061c.589-.589.952-1.4.952-2.298s-.363-1.71-.952-2.298a.75.75 0 0 1 0-1.06" fill="#070F2C"/></svg>