<svg xmlns="http://www.w3.org/2000/svg" width="24" height="24" viewBox="0 0 24 24" fill="none"><path fill-rule="evenodd" clip-rule="evenodd" d="M8 3.75c-.69 0-1.25.56-1.25 1.25v14c0 .69.56 1.25 1.25 1.25h8c.69 0 1.25-.56 1.25-1.25V5c0-.69-.56-1.25-1.25-1.25zM5.25 5A2.75 2.75 0 0 1 8 2.25h8A2.75 2.75 0 0 1 18.75 5v14A2.75 2.75 0 0 1 16 21.75H8A2.75 2.75 0 0 1 5.25 19z" fill="#070F2C"/><path fill-rule="evenodd" clip-rule="evenodd" d="M9 6.75A.75.75 0 0 1 8.25 6v-.001a.75.75 0 0 1 1.5 0V6a.75.75 0 0 1-.75.75" fill="#070F2C"/></svg>