<svg xmlns="http://www.w3.org/2000/svg" width="24" height="24" viewBox="0 0 24 24" fill="none"><path fill-rule="evenodd" clip-rule="evenodd" d="M3.25 3A.75.75 0 0 1 4 2.25h4a.75.75 0 0 1 .75.75v3a.75.75 0 0 1-.75.75H4A.75.75 0 0 1 3.25 6zm1.5.75v1.5h2.5v-1.5z" fill="#070F2C"/><path fill-rule="evenodd" clip-rule="evenodd" d="M15 3.75A2.25 2.25 0 0 0 12.75 6v12a3.75 3.75 0 1 1-7.5 0v-5.25H5A2.75 2.75 0 0 1 2.25 10V6A.75.75 0 0 1 3 5.25h6a.75.75 0 0 1 .75.75v4A2.75 2.75 0 0 1 7 12.75h-.25V18a2.25 2.25 0 0 0 4.5 0V6a3.75 3.75 0 1 1 7.5 0v6a.75.75 0 0 1-1.5 0V6A2.25 2.25 0 0 0 15 3.75m-11.25 3V10c0 .69.56 1.25 1.25 1.25h2c.69 0 1.25-.56 1.25-1.25V6.75zm17 14.25a.75.75 0 0 1-.75.75h-4a.75.75 0 0 1-.75-.75v-3a.75.75 0 0 1 .75-.75h4a.75.75 0 0 1 .75.75zm-1.5-.75v-1.5h-2.5v1.5z" fill="#070F2C"/><path fill-rule="evenodd" clip-rule="evenodd" d="M21.75 18a.75.75 0 0 1-.75.75h-6a.75.75 0 0 1-.75-.75v-4A2.75 2.75 0 0 1 17 11.25h2A2.75 2.75 0 0 1 21.75 14zm-1.5-.75V14c0-.69-.56-1.25-1.25-1.25h-2c-.69 0-1.25.56-1.25 1.25v3.25z" fill="#070F2C"/></svg>