<svg xmlns="http://www.w3.org/2000/svg" width="24" height="24" viewBox="0 0 24 24" fill="none"><path fill-rule="evenodd" clip-rule="evenodd" d="M12 18.75a1.25 1.25 0 1 0 0 2.5 1.25 1.25 0 0 0 0-2.5M9.25 20a2.75 2.75 0 1 1 5.5 0 2.75 2.75 0 0 1-5.5 0M7 9.75a.25.25 0 1 0 0 .5.25.25 0 0 0 0-.5M5.25 10a1.75 1.75 0 1 1 3.5 0 1.75 1.75 0 0 1-3.5 0m10-2a.75.75 0 0 1 .75-.75h2a.75.75 0 0 1 .75.75v2a.75.75 0 0 1-.75.75h-2a.75.75 0 0 1-.75-.75zm1.5.75v.5h.5v-.5z" fill="#070F2C"/><path fill-rule="evenodd" clip-rule="evenodd" d="M12 1.25a.75.75 0 0 1 .624.334l2 3A.75.75 0 0 1 14 5.75h-1.25v8.037l3.5-1.75V9a.75.75 0 0 1 1.5 0v3.5a.75.75 0 0 1-.415.67l-4.585 2.294V17a.75.75 0 0 1-1.18.614l-5-3.5a.75.75 0 0 1-.32-.614V10a.75.75 0 0 1 1.5 0v3.11l3.5 2.45V5.75H10a.75.75 0 0 1-.624-1.166l2-3A.75.75 0 0 1 12 1.25" fill="#070F2C"/></svg>