<svg xmlns="http://www.w3.org/2000/svg" width="24" height="24" viewBox="0 0 24 24" fill="none"><path fill-rule="evenodd" clip-rule="evenodd" d="M12 10.75a2.25 2.25 0 1 0 0 4.5 2.25 2.25 0 0 0 0-4.5M8.25 13a3.75 3.75 0 1 1 7.5 0 3.75 3.75 0 0 1-7.5 0" fill="#070F2C"/><path fill-rule="evenodd" clip-rule="evenodd" d="M12 4.75a7.25 7.25 0 1 0 0 14.5 7.25 7.25 0 0 0 0-14.5M3.25 12a8.75 8.75 0 1 1 15.445 5.634l1.835 1.836a.75.75 0 1 1-1.06 1.06l-1.836-1.835A8.72 8.72 0 0 1 12 20.75a8.72 8.72 0 0 1-5.634-2.055L4.53 20.53a.75.75 0 0 1-1.06-1.06l1.835-1.836A8.72 8.72 0 0 1 3.25 12" fill="#070F2C"/><path fill-rule="evenodd" clip-rule="evenodd" d="M11.25 7a.75.75 0 0 1 .75-.75h.001a.75.75 0 0 1 0 1.5H12a.75.75 0 0 1-.75-.75" fill="#070F2C"/></svg>