<svg width="63" height="70" viewBox="0 0 63 70" fill="none" xmlns="http://www.w3.org/2000/svg"><path fill-rule="evenodd" clip-rule="evenodd" d="M24.5 7.5c5.374-1.471 8.96-6.824 14.254-5.129C44.034 4.062 47.94 9.604 48 14.714 48.058 19.719 48 28 48 28s1.412 11.921-2 15.728c-3.394 3.788-17.616.58-22.957.99-5.866.45-13.445 3.155-17.194-.99-4.017-4.44 2.206-11.16 1.078-16.828-.877-4.402-8.204-7.293-6.732-11.56C1.663 11.082 8.483 13.202 13 11.5c3.322-1.253 8.057-3.057 11.5-4" fill="#EDF0F5"/><rect x="2.066" y="9.189" width="43.067" height="31.305" rx="1.086" fill="#fff"/><path d="M12.38 14.437c0-.4.324-.724.724-.724h22.077c.4 0 .723.324.723.724v2.895c0 .4-.324.724-.723.724H13.104a.724.724 0 0 1-.724-.724z" fill="#fff"/><path d="M12.38 14.437c0-.4.324-.724.724-.724h22.077c.4 0 .723.324.723.724v2.895c0 .4-.324.724-.723.724H13.104a.724.724 0 0 1-.724-.724z" stroke="#070F2C" stroke-width=".181"/><path fill-rule="evenodd" clip-rule="evenodd" d="M16.07 16.417a.113.113 0 0 0 .16 0l.453-.453a.113.113 0 0 0 0-.16l-.453-.452a.113.113 0 1 0-.16.16l.373.372-.373.373a.113.113 0 0 0 0 .16m-.754 0a.113.113 0 0 0 .16 0l.453-.453a.113.113 0 0 0 0-.16l-.453-.452a.113.113 0 0 0-.16.16l.373.372-.373.373a.113.113 0 0 0 0 .16" fill="#7C94E9"/><path fill="#7C94E9" d="M19.076 14.799h14.838v.905H19.076zm0 1.447h11.219v.362H19.076z"/><g clip-path="url(#a)"><path d="M12.38 23.304c0-.4.324-.724.724-.724h22.077c.4 0 .723.324.723.724v2.895c0 .4-.324.724-.723.724H13.104a.724.724 0 0 1-.724-.724z" fill="#fff"/><path fill-rule="evenodd" clip-rule="evenodd" d="M16.07 25.283a.113.113 0 0 0 .16 0l.453-.453a.113.113 0 0 0 0-.16l-.453-.452a.113.113 0 1 0-.16.16l.373.373-.373.372a.113.113 0 0 0 0 .16m-.754 0a.113.113 0 0 0 .16 0l.453-.453a.113.113 0 0 0 0-.16l-.453-.452a.113.113 0 0 0-.16.16l.373.373-.373.372a.113.113 0 0 0 0 .16" fill="#7C94E9"/><path fill="#7C94E9" d="M19.076 23.665h9.048v.905h-9.048zm0 1.448h13.572v.362H19.076z"/></g><path d="M12.38 23.304c0-.4.324-.724.724-.724h22.077c.4 0 .723.324.723.724v2.895c0 .4-.324.724-.723.724H13.104a.724.724 0 0 1-.724-.724z" stroke="#070F2C" stroke-width=".181"/><g clip-path="url(#b)"><path d="M12.38 32.35c0-.399.324-.723.724-.723h22.077c.4 0 .723.324.723.724v2.895c0 .4-.324.724-.723.724H13.104a.724.724 0 0 1-.724-.724z" fill="#fff"/><path fill-rule="evenodd" clip-rule="evenodd" d="M16.07 34.331a.113.113 0 0 0 .16 0l.453-.452a.113.113 0 0 0 0-.16l-.453-.453a.113.113 0 0 0-.16.16l.373.373-.373.372a.113.113 0 0 0 0 .16m-.754 0a.113.113 0 0 0 .16 0l.453-.452a.113.113 0 0 0 0-.16l-.453-.453a.113.113 0 0 0-.16.16l.373.373-.373.372a.113.113 0 0 0 0 .16" fill="#7C94E9"/><path fill="#7C94E9" d="M19.076 32.713h9.048v.905h-9.048zm0 1.448h13.572v.362H19.076z"/></g><path d="M12.38 32.35c0-.399.324-.723.724-.723h22.077c.4 0 .723.324.723.724v2.895c0 .4-.324.724-.723.724H13.104a.724.724 0 0 1-.724-.724z" stroke="#070F2C" stroke-width=".181"/><path d="M57.745 35.741c-.161.019-.337.037-.535.065l.198-.009c.086-.013.287-.04.337-.056m.501-.18c-.017.002-.067.01-.098.017a.3.3 0 0 0-.089.023.4.4 0 0 0 .083-.012c.066-.014.135-.031.104-.028m-.116 10.572c.017.066.03.122.043.178-.01-.048-.023-.111-.042-.178M56.724 35.91c-.055.003-.091.008-.128.012.045-.004.094-.007.128-.013M44.973 51.932l.005-.026-.007.032zm12.78-16.295-.012.001zm.001 0-.002.008c.028-.007.021-.008.002-.008m.784 1.239.003-.039-.001.012-.003.037zm-1.778-.999q-.047.005.01 0l.036-.003h-.009zm-.322.075.009.001.027-.003h-.009zM44.546 54.355l.001-.01zm-.011.075.01-.075zm4.503 2.304a.3.3 0 0 0 .01.098l.008-.037c-.007-.015-.01-.052-.018-.06m-.095-.086v.019q.001.018.007.016.003 0 .002-.016c-.002-.012-.007-.025-.009-.019m-2.136 10.914v-.033zm2.307-10.623v.004zm-.004-.023.004.024zm-.494 4.33.002-.005zm.327-4.506h-.002v.003zm0 .001h.006q-.004-.008-.006 0m-2.656 12.325-.007.002h.002l.007-.002zm2.795-12.154q.002.009.002-.002l-.002-.007zm.054.055.001-.002v-.005l-.002.002zm-.684 4.719.005-.013zm12.724 6.625a1 1 0 0 0-.094.083l.041-.022zm.054-.12-.019.013q-.017.015-.014.016.001.001.017-.01c.013-.01.022-.023.016-.02m-3.692-8.556.01.04zm3.454 8.883-.004.003zm.025-.021-.024.02zm-2.787-.906-.003.005.006-.006zm2.905.667-.002.001zm.002.001.002.003q.005-.007-.002-.004m-4.094-10.705-.002-.009v.003l.003.008zm3.967 10.921q-.009.009.003 0l.006-.005h-.002zm-.04.078h.003l.005-.004h-.002zm-2.39-1.399-.002.002zm.008-.014-.009.014zm3.342 1.293a.06.06 0 0 0 .07.002l-.029-.013c-.01.008-.033.005-.04.011m-.145.01q.003.015.01.027c.01.016.02.02.021.017q.003-.002-.01-.021c-.008-.016-.022-.032-.021-.023m-.579-10.925.007.032zm.815 10.819.001-.001zm-.004.007a.01.01 0 0 0 .005-.008q-.005.002-.005.008m-.698-4.149v.005-.006zm.561 4.358v.001l.003.001z" fill="#070F2C"/><path d="m61.882 68.554.004-.008q-.012 0-.004.008m-1.115-12.67-.003-.007.001.002.003.007zm1.27 12.496q.002-.006-.003-.003l-.003.003.002.001zm-.03-.066-.002-.001v.001l.002.001m-.687-4.589v.014q.002-.008 0-.014M47.517 28.858a.13.13 0 0 0-.087.007l.034.018c.013-.01.046-.011.053-.025m.071-.148-.017-.004q-.015.003-.014.01 0 .006.014.005c.011 0 .022-.008.017-.012m-.271 7.539-.03.001q.015.001.03-.001m.024-7.285h-.004zm.019-.005a.03.03 0 0 0-.02.004q.012.002.02-.004m-1.227 2.331v-.005l-.001.006zm1.372-2.591v-.002h-.002zm0 0v.01q.006-.006 0-.01m1.308 7.553h.007-.008zm-1.452-7.339q-.007.003.002.003l.006-.001-.002-.002zm-.044.083.002.002.004-.001-.002-.002zm-1.17 2.691v-.002zm.001.012-.002-.012q-.002.007.002.012m10.322-8.502q0 .088.04.166l-.006-.062c-.013-.024-.023-.088-.033-.104m-.111-.166v.034q.005.033.01.03.003 0 0-.028c-.002-.023-.008-.047-.01-.037m-3.416-.069.02.06zm3.719.518.005.005zm-.029-.026q.012.015.027.026zm1.118 5.509.009-.004-.012.005zm-1.383-5.758h-.002v.004zm-.001-.001h.007c-.003-.01-.005-.007-.007 0m-5.74-1.086-.008-.01.002.003.008.01zm5.978 1.347q.01.01-.001-.004l-.007-.008v.003zm.103.034-.001-.003-.006-.005v.003zm.159 5.401.003.003zm-.024-.016.024.016z" fill="#070F2C"/><path d="M23.936 66.214a6 6 0 0 0 0-.4l-.009.139c.004.068.003.218.009.261m.061.456a1 1 0 0 0-.002-.147.3.3 0 0 0-.002.06c0 .052.003.108.004.086m-.733-6.846v-.135q-.003.056 0 .134m.634 5.493V65.3zm0 .097v-.096c0 .033-.002.069 0 .096m-.04-17.71v.02-.025zm.148 18.599v-.009zm0 0-.005-.007c.002.023.003.02.005.007m-.75.359h.03l-.01-.002h-.028zm.663-1.2q0-.036-.002.007v.027l.002-.006zm-.032-.275-.002.005v.021l.002-.005zm-.027-19.318v.008zm-.001-.057v.057zm-2.017 20.95a.1.1 0 0 0-.11.004l.044.033c.015-.017.057-.014.066-.037m.11-.266a.04.04 0 0 0-.024-.008q-.024.005-.022.018 0 .01.02.011c.016-.002.033-.014.026-.021m2.255.478h.04a.06.06 0 0 0-.04 0m-2.57-.032h-.004zm.021-.007a.03.03 0 0 0-.023.007c.008 0 .018.002.023-.007m1.142 1.229h-.006l.008.002zm-.97-1.694v-.004h-.003zm0 0v.02a.013.013 0 0 0 0-.02m.332.11-.009.001q0 .004.003.004h.008zm-.512.272q-.008.005.004.005l.007-.003-.003-.003zm-.033.147q0 .003.003.004l.004-.002-.002-.004zm1.729 1.171h-.002zm.014-.001-.016.002c.006 0 .012.005.017-.002" fill="#1E3EAE"/><path fill-rule="evenodd" clip-rule="evenodd" d="M44.586 40.347c.145-.1.266-.234.351-.388.087-.164.132-.346.13-.531 0-.37-.001-.723-.01-.987-.01.251-.01.251-.02.083-.002.127-.002.274-.002.42 0 .16 0 .319-.002.445l-.002-.057c-.004-.09-.008-.182-.01-.512 0-.035.001-.05.002-.068a19 19 0 0 0-.001-.89c-.009-.25-.018-.408-.029-.183v-.014l-.003-.056-.001-.163v-2.45l.003-.744v-.561l-.001-1.512.003-2.753c0-.448-.002-.87-.006-1.284a206 206 0 0 1-.008-1.924v-3.929c0-.337 0-.676-.005-.977l-.002-.454-.003-2.185.002-1.322v-4.935l-.001-.942-.005-1.123a.99.99 0 0 0-.956-.961q-.181-.004-.37-.003h-.191l-1.14-.002-1.701.002-.83.004-.545.003c-.575.002-1.117.002-1.645-.004a92 92 0 0 0-1.199-.005h-1.9l-2.265.003-.657-.002-2.08-.003-3.998-.001h-4.273l-1.3.004a37 37 0 0 0-.69-.004H17.8l-1.987-.002h-1.412l-1.884.001-2.562.002-.267.002h-.08c-.325.003-.649.005-.936-.002H7.348l-1.317.004q-.893.001-1.776-.004l-.933-.004h-.12q-.061 0-.115.003l-.054.002-.054.008a.99.99 0 0 0-.836.84l-.008.054-.005.086v.568l-.004 1.512v.656c.012 1.627.012 3.297.007 4.976l-.002 1.23.003 4.652.003 1.41.007 1.673v.565c-.007 1.43-.003 2.83.004 4.223v.043a97 97 0 0 1 0 1.247 1 1 0 0 0-.005.16l-.001 1.809v4.32a1 1 0 0 0 .004.114 1 1 0 0 0 .136.419.98.98 0 0 0 .826.484 1 1 0 0 0 .12.001h.741l.987.001H8.57l.646-.003a81 81 0 0 1 1.139-.005h1.955l.643.002-.18.004.102.002 1.71.001.362-.001c.256-.006.574-.006.886-.006h.186l1.986-.001 3.134.003.22.002-2.052.002q.344.004.65.003h.23l5.227-.001h.95q2.567.006 5.105-.004h.52c.388 0 .777 0 1.132-.005.258.005.553.005.849.005h.529l1.219.004h1.412l2.654-.006.274.004c.14.001.284.003.371.006h-.255.246l.782.008a5 5 0 0 1-.41.01l-.67.002c.122.004.314.006.501.007.146.001.289.002.393.005.01.002-.077.003-.164.004-.086 0-.173.001-.168.004q.005.003-.001.006l-.004.004h.41q.15-.003.3.007c-.039.004.072.005.18.005l.162.002c.004.002.017.003.01.004a4 4 0 0 1-.19.006c-.062 0-.12.002-.139.003-.052.004-.044.008-.037.012l.005.004.001.001 2.253.007h-.07c-.419.003-.443.003-.683.01-.15.004-.287.004-.47.002a23 23 0 0 0-1.128.004c.244.006.574.008.895.01l.424.004c0 .002-.038.003-.073.004-.06.003-.112.005.035.007l-.256.002.02.003h.017l.203.002c.14 0 .281 0 .362.004.082.004.264.005.442.006h.04c.26.001.44.005.58.01.044.003-.072.005-.185.006l-.178.004-.025.002a3 3 0 0 1-.242.008l.347.012-.134.002-1.988.004h-3.522l-3.699.004-5.029.005-2.568.001h-4.474l-3.14-.004-3.515-.003h-3.045l-4.458.003-1.793-.003-2.271-.003h-.907l-.076-.003-.033-.002a1.207 1.207 0 0 1-1.108-1.168l-.001-.133v-2.384c-.002-.353-.003-.706-.002-1.094v-1.606l.001-1.704-.003-2.46v-1.218l.005-3.39c0-.353 0-.673-.005-.985-.007-.442-.009-.964-.01-1.521V10.54l.001-.179q.001-.075.012-.15l.012-.075.019-.073a1.21 1.21 0 0 1 1.11-.897c.054-.003.1-.003.147-.003h1.858l2.285.001h6.947l3.705.002h.381l4.94-.005h.667l3.804.002h7.866c1.366-.001 2.752-.001 4.102.006h.473l2.428.002h1.214a1.7 1.7 0 0 1 .322.022q.165.03.314.106a1.22 1.22 0 0 1 .642.82q.038.196.03.396v.75l.001 1.497v5.091l-.004 12-.005 3.993-.001 3.234v.237c0 .424 0 .85-.005 1.238a21 21 0 0 0-.001.44v.302c-.002.1-.005.18-.007.091-.006-.22-.013-.164-.019-.096l-.002.071q0 .049-.003.11-.003.119-.032.236a1.1 1.1 0 0 1-.143.336l.032-.053.026-.056a1 1 0 0 0 .045-.113l-.01.025-.02.048-.039.077a1 1 0 0 1-.077.123l-.012.019v-.002l.013-.018c.086-.132.146-.28.176-.434q.029-.152.026-.308c0-.07 0-.09-.002-.11v-.027c-.013-.603-.028-.685-.044-.508a.7.7 0 0 0-.009.163v.236q0 .19-.003.386a1.06 1.06 0 0 1-.2.577c-.104.135-.076.104-.048.073.02-.022.04-.044.008-.001a1.1 1.1 0 0 1-.246.214c-.013.005-.01 0-.005-.004q.005-.005.003-.006m-29.064.087h.06c.337.002.581.003.854 0a44 44 0 0 0-.814 0zM15.02 9.372l.085.002a8 8 0 0 1-.258-.002zm8.415.003h-.073q-.126 0-.013.001h.084zm4.315-.002h.164-.008l-.086.001z" fill="#070F2C"/><path d="M44.869 40.027c.094-.139.154-.298.174-.465q.006-.065.008-.134v-.141l-.004-.296-.013.401q.002.068-.003.163l-.014.096-.024.097q-.046.145-.124.279m-.872.563.095-.002c.04-.004.083-.012.116-.017a.6.6 0 0 0 .188-.061c-.004-.003-.052.02-.171.048a1.3 1.3 0 0 1-.192.026c-.047.004-.069.007-.036.006m-20.817-.157h-.367c.098 0 .228.002.368 0m21.812-2.706v-.044zm.002.261c.002-.111 0-.185 0-.261a8 8 0 0 0 0 .261m-20.069-28.6h.054-.067zm19.993 30.737.016-.02zm0-.001-.002-.008c-.035.05-.025.04.002.008m-2.871.439h.078l-.023-.002h-.077zm2.976-2.495q-.002-.096-.002.021v.073l.002-.018zm-.048-.664-.001.017v.056l.002-.018zM19.906 9.386h.02zm-.156 0h.155c-.055 0-.112-.002-.156 0m25.805 59.115a.5.5 0 0 0-.103.082q.025-.008.047-.018c.013-.018.052-.049.056-.064m.033-.154-.021.012q-.018.015-.013.018.003.004.018-.009c.013-.01.023-.024.016-.021m-.227.373-.005.003zm.027-.019a.1.1 0 0 0-.026.02.1.1 0 0 0 .026-.02m-3.281-.955-.005.005.007-.005zm3.379.664v-.002l-.003.002zm.001 0 .004.006q.005-.008-.004-.006m-.425-10.873.001-.009v.003l-.002.009zm.313 11.131q-.008.007.004 0l.007-.005h-.003zm-.036.092h.003l.005-.005h-.003zm-2.787-1.385-.002.001zm.015-.013-.013.013q.008-.006.013-.013M6.457 8.333H40.66v.947H6.457z" fill="#070F2C"/><path fill-rule="evenodd" clip-rule="evenodd" d="M6.467 8.65c.003.139.004.294.004.446v.127l.034-.002v-.03l.003.025v.005h.16l.043.003c.15.004.3.002.384-.004.12-.01.195-.019.088-.03l.033-.003.078-.001h1.174l.095.001q.133 0 .261.002a8 8 0 0 0 .27 0q.317-.004.636-.001h.088l1.319.003q.32 0 .615-.006c.295-.005.593-.008.922-.008h1.883c.162 0 .323 0 .467-.005l.177-.001h.04l1.047-.003.634.001q.935.005 1.872 0h.492c.154.001.311 0 .451-.001a35 35 0 0 1 1.07.002c.353.004.72.005 1.083.005l.816-.002.397-.004.261-.003c.276-.002.535-.002.788.005.171.005.372.005.575.005l.91-.001 1.085-.002.315.001q.492.005.996.004h1.916l2.047.001.623-.004q.142.004.33.004h.684l.951.002q.33.002.677 0c.292-.003.603-.003.903-.002l1.227-.002.128-.001h.038c.156-.003.311-.006.449.002h.634l.631-.004q.429-.002.851.004.212.003.439.003v-.75l-.773-.003h-.314c-.778.012-1.576.012-2.379.007l-.587-.002-2.224.002-.674.003-.798.006h-.27a102 102 0 0 0-2.018.003H30.5q-.291.005-.59 0h-.002c-.001-.002-.002-.004-.078-.005l-.864-.002-3.776-.005-1.727-.001h-.027l-.28.001a16 16 0 0 1-.543.004h-.07l-.864-.001-.308-.002.084-.004-.05-.001-.817-.002h-.172a10 10 0 0 1-.423.005h-1.036l-1.5-.005-.105-.001h.98a10 10 0 0 0-.313-.004h-.11l-2.498-.002-.455-.001q-1.228-.006-2.438 0h-.25c-.185-.001-.37-.001-.537.002-.126-.004-.268-.004-.41-.004l-.252-.001-.586-.004h-.013q-.33-.002-.661 0c-.407.003-.833.003-1.266.002l-.134-.003-.182-.005h.122-.118l-.378-.006q.094-.011.189-.007l.319-.001c-.062-.004-.155-.005-.245-.006-.07 0-.14-.002-.191-.004L8 8.382c.04 0 .082-.001.078-.003q-.005-.003-.005-.005v-.003h-.196q-.075.003-.149-.005c.016-.003-.038-.004-.09-.004l-.079-.001-.003-.001-.004-.002c.006-.002.048-.003.087-.004l.064-.003c.023-.002.016-.005.01-.008l-.007-.005-1.084-.004h.037c.195-.002.207-.002.317-.007a4 4 0 0 1 .224-.001c.27.005.373.004.538-.004-.122-.004-.283-.005-.44-.007l-.202-.002.032-.004c.027-.001.05-.003-.022-.004l.122-.002-.02-.002-.1-.001c-.067 0-.134 0-.175-.003-.042-.003-.129-.003-.214-.004H6.7c-.126 0-.215-.003-.285-.007-.024-.002.03-.003.084-.005l.082-.002a1 1 0 0 1 .122-.007l-.175-.009.063-.001.95-.004 1.69-.004 1.773-.005 2.411-.008 1.233-.003 2.149-.002h1.509l1.69.002 1.462-.002 2.14-.006.862.003 1.092.001 1.548.002.685-.001.233-.002c.169-.001.338-.003.524-.001h1.59q.597.002 1.18-.004c.195-.002.384-.002.585 0l1.63.004c.169 0 .323 0 .472-.005.211-.007.462-.009.73-.01l3.884-.001h2.165v1.181h-.117l-2.024-.001h-3.329l-1.775-.002h-.182l-2.367.004h-.32l-1.822-.002h-1.688l-1.96.002h-.12c-.655 0-1.32 0-1.966-.007h-.227l-2.325-.001-2.87.002-1.004-.001-5.75-.004-1.912-.005-1.55-.001h-.11c-.204 0-.41 0-.597-.005l-.21-.001h-.191v-.148c.003-.05.006-.092.008-.046.005.113.012.084.018.05.003-.046.005-.121.006-.198.001-.08.003-.163.007-.213v.151l.005-.078.003-.069v.001q.003.084.004.227l-.005.15c0 .034.001.044.002.054v.013l.001.011.002.048.044-.002c.28-.012.317-.027.233-.043l-.006-.002c-.004-.002-.01-.004-.072-.006h-.098v.005l-.006-.006h-.003v-.003l-.007-.007h.007l.001-.031h-.033v.006l-.007-.006h-.003v-.004l-.006-.006h.006v-.025c0-.122 0-.248.002-.357-.002-.083-.004-.063-.006-.044-.002.014-.003.027-.004 0 .001-.172.006-.162.01-.151zm-.005.588v-.006h-.006zm.01.01-.01-.01v.027h-.006l.006.006v.003h-.006l.006.006v-.006h.004l.006.006v-.006h.026l.006.006v-.006h-.006l-.01-.01h.01l-.026-.025zm0 0v.017h.016zm-.064-.424v-.01zm.41.431a6 6 0 0 1-.306.01l-.002-.032h.067l.2.001c-.08.01-.08.01.04.021M20.14 8.43h-.028c-.163-.002-.28-.003-.408 0 .122.002.235.001.389 0zm14.795.757h-.012l.124.001zm-4.004-.001h.035q.06 0 .007-.002h-.036l-.005.001m-2.068.002h-.078l.004-.001z" fill="#070F2C"/><path d="M6.492 8.868a9 9 0 0 0-.001.413l-.034-.034.097-.003-.097-.006.043.043.006-.091c-.005-.082-.006-.272-.014-.322m-.072-.561a2 2 0 0 0-.002.195.4.4 0 0 0 .005-.082.5.5 0 0 0-.002-.113m10.059.12h.176c-.047 0-.11-.002-.176 0m-9.32.764h.02zm-.126.002c.053.001.089 0 .125-.002-.044 0-.092-.001-.125.002m23.185-.02h-.026l.032.001zM6.4 8.809v.012zm0-.001.007.006c-.002-.03-.004-.024-.006-.006m.966-.49H7.33l.011.001h.037zm-.371.902q.045-.001-.01-.002H6.95l.008.002zm.318-.045-.008-.002h-.027l.008.002zm25.31 0h-.01zm.073 0h-.074q.042.002.075 0M20.926 9.08c0-1.085 1.178-1.964 2.631-1.964 1.454 0 2.632.88 2.632 1.963" fill="#070F2C"/><path fill-rule="evenodd" clip-rule="evenodd" d="M26.176 9.047q-.004-.018-.005-.04c-.002-.023-.003-.045-.014-.06-.01.013-.01.013-.021.006v.041a.04.04 0 0 1-.014-.026l.001-.003.003-.005a.05.05 0 0 0-.006-.037c-.01-.011-.02-.017-.03-.006q-.003 0-.003-.003l-.002-.007a1 1 0 0 0-.02-.112l-.005-.034-.025-.093-.04-.122a.2.2 0 0 0-.029-.052.4.4 0 0 1-.047-.077 1 1 0 0 0-.134-.21l-.067-.076-.038-.049a1 1 0 0 0-.136-.14l-.001-.001-.024-.025a.2.2 0 0 0-.035-.027.4.4 0 0 1-.08-.068.4.4 0 0 0-.081-.07l-.067-.042h-.001l-.035-.02-.023-.012a.4.4 0 0 1-.064-.044.2.2 0 0 0-.048-.031l-.03-.018-.049-.026a1 1 0 0 0-.098-.045L24.88 7.5a1 1 0 0 0-.089-.044 3 3 0 0 0-.179-.067 1 1 0 0 0-.13-.04l-.066-.019-.041-.008-.02-.004a.1.1 0 0 0-.03-.012l-.067-.014-.094-.02a.4.4 0 0 0-.066-.012l-.04-.005q-.026-.002-.05-.006-.03-.004-.058-.005l-.077-.007a.1.1 0 0 1-.049-.007.4.4 0 0 0-.063-.003l-.063.002-.085-.007a.3.3 0 0 0-.091-.005q-.07.002-.141.002h-.005l-.032.001a2 2 0 0 1-.237.03l-.058.005-.22.044a.3.3 0 0 0-.064.02l-.032.01-.044.016-.026.007a1 1 0 0 0-.098.024l-.092.041a.2.2 0 0 1-.057.022v-.001q0-.003-.01-.002l-.08.03-.172.077q-.057.028-.113.06l-.052.028a1.3 1.3 0 0 0-.168.112.2.2 0 0 1-.047.038l-.04.031-.027.021-.024.018.004-.008-.005.002-.06.048-.003.002-.012.012a.1.1 0 0 1-.033.039l-.064.067-.053.051-.047.055-.008.007q.017-.025.037-.048l.022-.027q-.014.009-.021.02l-.007.01a1.3 1.3 0 0 0-.17.231l-.035.05-.026.053-.048.107a.2.2 0 0 0-.022.073.3.3 0 0 0-.025.058l-.022.052a.3.3 0 0 0-.013.064 1 1 0 0 1-.02.12l-.005.014-.007.014v-.008q.003-.006 0-.004v.012l-.01.035q-.009-.003-.008-.02V8.9q-.006.01-.01.023 0 .01-.005.018-.003-.001-.004-.008 0-.008-.003-.009h-.01l-.002.018q-.002.015-.008.014-.005-.001-.006.008 0 .006-.002.008h-.004q-.002-.001-.005-.01 0-.004-.003-.006-.005-.004-.012-.003h-.005l-.014.11a.1.1 0 0 0-.007-.037.03.03 0 0 1 0-.024.06.06 0 0 0-.001-.056.3.3 0 0 0-.018.065q-.003 0-.005-.004c-.002-.003-.003-.006-.006.001l-.001-.013h-.002l-.002.002-.002.01q0 .012-.006.019l-.007.024a.1.1 0 0 1-.011.03c-.005.002-.006-.004-.007-.01q0-.006-.003-.01a.02.02 0 0 1-.008-.013l-.014.018-.001-.007.002-.059v-.046l.003-.03q0-.033.004-.063l.018-.092.02-.096q.006-.03.016-.06l.01-.034.04-.126a3 3 0 0 1 .122-.24q.059-.101.135-.191l.052-.06.055-.064q.056-.057.113-.11l.02-.017q.032-.03.069-.06l.05-.041.034-.028q.027-.024.055-.046l.094-.066q.039-.026.079-.05l.102-.055q.072-.042.147-.076l.066-.03.073-.035q.018-.006.034-.016.02-.01.041-.017l.083-.028q.06-.02.117-.046a.3.3 0 0 1 .06-.018q.084-.018.168-.04a.2.2 0 0 0 .047-.019.3.3 0 0 1 .075-.024l.042-.009q.08-.018.16-.03l.207-.022a1 1 0 0 1 .122-.007l.066-.003.112-.003q.075.001.15.005l.083.004q.068.001.134.01.024.004.05.006l.06.006q.055.005.109.014l.186.038.019.004q.068.013.136.032.054.016.11.027l.033.009.183.068q.084.03.167.069.098.04.189.092a1 1 0 0 1 .21.134 2 2 0 0 1 .24.178q.043.032.081.069l.11.11q.04.037.072.082l.099.122.085.132q.042.066.074.139.037.07.064.144l.033.1q.018.051.026.102l.026.138.006.03a.3.3 0 0 1 .001.078q0 .02.002.039c-.002.005-.004.01-.007.005-.006-.011-.013-.008-.018-.004q-.005.01-.004.023l-.003.02V9.02l-.003-.012-.004.009-.001.007-.008-.023.003-.015q0-.005-.003-.006c-.015-.03-.03-.033-.046-.023l-.001.001q-.003 0-.007.008.003.03.002.062c.003.008.005.006.007.004q.002-.004.004 0c0 .017-.005.016-.01.016zm-4.59-1.122a.1.1 0 0 0-.03.03.1.1 0 0 0 .03-.03m2.543-.667.001.001-.011-.001q-.006-.003 0-.003l.008.001zm.392.093h-.003q-.007-.002-.001.001h.004m.196.066.008.002h-.005z" fill="#070F2C"/><path d="M26.15 9.027a.1.1 0 0 0-.003-.053l-.011.02c.005.008.005.028.013.033m.089.051.002-.01q-.002-.01-.007-.01-.003 0-.003.009c0 .007.005.014.008.01m-.148-.157v-.003zm.002.011-.002-.012q-.001.007.002.012m-1.508-1.546h.003zm1.662 1.641h-.007q.004.004.007 0m-5.335-.044v.004h.002V8.98zm5.207-.05q-.001-.004-.002.001l.001.004.001-.001zm-.048-.025v.003h.001zm-1.725-1.591.008.001q-.004-.002-.008-.001M56.391 23.4a.3.3 0 0 0-.005-.094l-.007.035c.005.015.007.05.012.059m.055.092.003-.018q0-.018-.003-.016l-.003.015c-.001.012.002.024.003.019m-4.794 2.172-.023-.019a.1.1 0 0 0 .023.019m4.679-2.461v-.004zm.005.021-.004-.022zm-3.239-1.809h.005zm3.361 1.988v-.002zm-.001 0h-.004q.001.007.004 0m-3.33 2.827h.007-.009zm3.233-3.001v.008l.002-.002zm-.047-.052.001.005.001-.002zm-3.653-1.749.014-.001zm-1.505 1.766a.02.02 0 0 0 0 .026l.01-.01c-.005-.004-.004-.014-.01-.016m-.068-.024-.002.005q0 .006.004.005.003 0 .003-.004-.001-.006-.005-.005m.585-.111h.009zm-.477.181.002.006q0-.004-.002-.006m-.115-.047h.005zm.144-.125h-.002zm-.05.17q0 .003.001 0v-.001zm.038.015.001-.001v-.001h-.001zm.646.567-.003.002q.002 0 .003-.002m-.773-.449q0-.008-.004-.002l-.001.01zm.02-.06v-.003l-.002.004v.003zm-.037.096h-.002q0 .002.002 0m.037-.105-.002.004zm-.031.084v.002zm-.012.035v-.001m1.254-.162a.03.03 0 0 0 .021-.021l-.018-.005c0 .008-.01.018-.003.025m.06.032h-.003zm1.258-.119h-.004zm-1.303.002.007-.003q-.005 0-.007.003m1.501.056v-.001m-1.49-.024q.001-.002-.002-.002v.002zm-.001-.055-.001-.002-.002.001.001.002zm.579.013h-.002zm-12.005 9.396q.024.075.056.148l-.014-.057c-.012-.023-.033-.079-.042-.091m-.098-.126.01.028q.012.026.013.024l-.008-.024c-.007-.018-.018-.036-.015-.028m-2.587-.965-.044-.034zm2.828 1.403.001.006zm-.013-.036.013.036zm-4.651 2.488.007.004-.009-.005zm4.475-2.753v.003zm0 0h.003q-.005-.009-.003 0m-.46.303h.011l-.003-.001h-.011zm.619-.044q.005.013 0-.004l-.003-.007q0 .006.003.01m.052.086v-.003l-.003-.007v.002zm-5.257 1.89.001.003zm-.012-.02.012.02zm.92-.439a.02.02 0 0 0 .008-.027l-.017.005c.005.006.001.016.01.022m.086.053q.004 0 .005-.004.003-.003-.004-.005-.003 0-.005.002c-.003.003.002.007.004.007m-.512-1.635h.008zm.377 1.504q.003-.004 0-.007c0 .002-.003.004 0 .007m.157.116-.007-.003zm-.973-1.548-.002.001zm.847 1.449q0-.003-.003 0v.001zm-.049-.043h-.002v.002h.002zm.073-.747.003-.001q-.002-.002-.003 0m18.146-.874a1 1 0 0 0-.02.158l.018-.057c-.001-.026.007-.085.002-.1m-.061-.161-.005.029q-.001.029.003.027.003 0 .005-.024c.002-.02 0-.041-.003-.032m.058.509-.002.006zm.006-.038-.006.038zm-5.546 1.324.008-.002-.01.001zm5.46-1.65-.001.003zm0 0h.005q-.002-.01-.005 0m-.425.359.009.007-.002-.003-.01-.006zm.487-.049q0 .014.002-.003l.001-.01-.001.002zm.024.104.002-.003.001-.008-.002.003zm-5.962.579-.002.003zm.016-.023-.017.023a.1.1 0 0 0 .017-.023" fill="#070F2C"/><path fill-rule="evenodd" clip-rule="evenodd" d="M57.056 33.242q-.006-.004-.013-.004l-.002.003q-.006.006-.003.013l.003-.004q0-.003.005-.005.002.005.008.008l.005.004-.003.01a.07.07 0 0 1-.033.035l-.001.001h-.003v-.005a.01.01 0 0 0-.01 0l.001.003-.001.007-.004-.002v.01l.002.007a.03.03 0 0 1-.012.016l-.003.008.004.002q.003 0 .004.004.004.012.013.015l.003.002.039.028q.022.02.047.037l.118.079.03.02.026.018q.037.024.077.045l.044.026.018.012.005.005q.022.025.052.039l.053.03.045.026.049.03.009.004.04.018.032.016.047.029a.3.3 0 0 0 .045.022l.047.025.06.033.029.016.049.025q.051.03.107.054a.04.04 0 0 0 .024.003q.007 0 .016.003a.3.3 0 0 1 .042.027q.007.005.017.008a.1.1 0 0 1 .034.013l.009.005.013.007.01.005q.006.002.011.006l.022.009.02.009.042.023q.015.006.03.016.01.008.022.013l.061.026.041.02.007.004.038.02.04.021.042.023.014.007q.015.007.031.017l.03.019q.015.007.029.017a.3.3 0 0 1 .073.061l.019.02h.001l.002-.007h.01q.002.002.004 0l-.001-.009q-.003-.004-.002-.007 0-.003-.002-.005v-.004l.003.002q0-.003.003-.002l.002-.001-.007-.019q.01 0 .012.011.001.005.005.005c.005 0 .005.001.01.005l.001.001-.004-.006-.014-.022.007-.006h.003q.002.002.004.001l.001-.001v-.003q-.003-.002 0-.004v-.005l-.005-.005.004-.004h.004q0 .003.003.002l-.003-.007-.002-.009.008.008q.004.004.008.002l-.005-.013-.002-.002h-.001q0-.002.001 0l.002.002-.002-.006-.001-.005a.2.2 0 0 0-.032-.03l-.017-.015-.013-.015-.006-.006-.009-.01a2 2 0 0 0-.17-.109l-.002-.002q-.005-.002-.008-.007l.012.007.015.008-.002-.003-.009-.006-.031-.02-.012-.006-.014-.007-.003-.002q-.006-.005-.013-.003l-.004-.002-.022-.013v-.002h-.001l.004-.001-.008-.006-.023-.014a.03.03 0 0 0-.018-.006l-.009-.003-.046-.027-.038-.023-.061-.037-.016-.01-.007-.005v-.005a.03.03 0 0 0-.016-.01.1.1 0 0 1-.055-.028l-.007-.005-.023-.008-.02-.008-.059-.034-.015-.01a.12.12 0 0 0-.065-.034l-.008-.005-.036-.027-.022-.017-.02-.017-.019-.008-.016-.01q-.001-.01-.01-.01h-.006q-.007-.007-.017-.01-.008-.004-.015-.01l-.024-.013a.04.04 0 0 1-.018-.01l-.023-.019-.018-.011a.01.01 0 0 1-.006-.01l-.018-.006-.042-.028-.01-.006-.05-.034a.1.1 0 0 1-.023-.02l-.008-.006-.014-.007-.015-.008-.024-.015a.02.02 0 0 1-.012-.013.02.02 0 0 0-.018-.018l-.008-.001-.012-.003-.023-.012a.1.1 0 0 1-.024-.023.04.04 0 0 0-.027-.02.02.02 0 0 1-.012-.006l-.01-.006a.2.2 0 0 1-.05-.034l-.016-.012-.028-.015h-.001l-.006-.002a.02.02 0 0 1-.016-.004l-.01-.007-.037-.024a.05.05 0 0 0-.028-.009.03.03 0 0 1-.019-.005l-.032-.025a.04.04 0 0 0-.018-.012l-.007-.005q-.002-.004-.006-.006l-.002-.002-.012-.008-.017-.013h-.003l-.003.002a.05.05 0 0 1-.02.026q-.01.006-.012-.003v-.006q-.006 0-.011.005l-.002.001q0 .005.004.006.003 0 .004.004a.03.03 0 0 0-.012.02c-.01.007-.016.004-.021 0m1.518.839a.02.02 0 0 1-.012-.007h.002q.007.002.01.007" fill="#fff"/><path d="M57.064 33.218q.002.011.014.01l.003-.016c-.005.003-.01 0-.017.006m-.061.062v.006q.003.002.005-.002v-.005c0-.004-.005 0-.005.002m1.66.849-.005-.002q0 .002.005.003m-1.54-.943q0 .002.004 0 0-.002-.004 0m-.116.116.004-.006zm.097-.091q.003 0 .001-.002zm.036-.037.001-.002zm.65.428-.002-.001q0 .002.002 0m.346-.428c-.003 0-.001-.003-.006.001l-.006.007v.002l-.004.003.001-.002h-.002l-.008.01h-.001v.001l-.003-.003v-.002h-.001q-.003 0-.002-.002l-.003-.004h-.008l-.005-.004h-.003l-.004-.001-.001-.002-.005-.005h-.001q0-.003-.002-.001-.003 0-.003-.003l-.001-.005h-.006q-.002 0-.002-.003v-.003l-.003-.002-.004-.001v-.002l-.003-.003-.005-.004-.006-.004h-.003v-.002l-.002-.001-.003-.003-.002-.001q-.002 0-.003-.002l-.004-.001q-.003.001-.002-.002h-.005l-.002-.003q0-.003-.002-.003l-.004-.004H58l-.004-.003-.002-.001-.007-.003h-.007q-.003-.004-.007-.002h-.002v-.002l-.003-.002-.013-.006-.006-.002h-.003l-.003-.001h-.001v-.002l-.002-.002h-.001q-.002.003-.002.001h-.004l-.005-.003h.004l-.002-.001-.009-.003h-.001l-.01-.002h-.002c0-.002-.002 0-.002-.002l-.002-.001h-.008v-.003l-.001-.002v-.002h.002l-.001-.003v-.002l.001-.002v-.002l-.001-.002v-.003l.001-.003-.004-.003.002-.002h.001q0 .003.002 0l-.002-.004v-.002h.001v-.003l-.001-.001-.001-.002.001-.002v-.005l.005-.001h.03q.005 0 .008.002l.007.002.006.002.006.001h.01l.002.002.005.002.006.002.002.001h.007l.003.002h.005l.002.001.006.004.003-.001q0-.003.004-.002.008 0 .015.005l.007.002.005.002.008.004.007.002.007.003.006.003.012.004.007.004.006.003.008.004q.005 0 .006.006h.001l.009.006.01.005.004.003.025.02.005.005q.002-.001.001.004h.001l-.001.003-.006.006v.004h-.002l-.001.002-.003.002v-.002.001l-.015.016q.002 0 0 .003l.004-.004z" fill="#fff"/><path d="M58.128 33.182q.002-.003-.001-.002l-.003.005c.002-.002.002 0 .004-.003m.025-.026-.002.001v.002zm.002-.006-.002.003zm-4.707-6.201c-.004.007-.014.007-.014.017.005.004.005.004.007.01.003 0 .004-.004.008-.003l-.002.008-.003-.002q-.005 0-.005.006 0 .009.007.015v.003l-.02.012-.007.003-.004.002-.012.008-.022.013-.008.01a.04.04 0 0 1-.013.013l-.03.02q-.004.002-.006.008l-.003.003q-.007.008-.015.013l-.011.006-.033.021-.006.004-.007.005a.03.03 0 0 1-.017.011l-.02.01-.012.01-.005.006-.003.004a.02.02 0 0 1-.014.006l-.01.005-.015.01c-.004.006-.011.008-.016.014l-.005.003-.017.01-.03.021-.032.024-.008.01q-.004 0-.006.002l-.01.008-.016.01-.01.01-.013.01-.018.016-.001.003q-.002.006-.008.005l-.01.008-.008.01a.03.03 0 0 1-.014.008l-.014.01-.023.017-.005.005a.1.1 0 0 1-.032.033l-.009.007-.031.03-.008.01-.01.013-.004.003a.1.1 0 0 0-.026.03l-.008.008-.004-.001-.012.011-.053.052-.026.029-.007.01-.011.012-.005.004v-.002h-.002l-.013.014q0 .005-.005.009l-.011.014-.021.02-.002.002q.005-.008.012-.015-.005.001-.006.005l-.038.044a.2.2 0 0 0-.03.037q-.006.005-.008.013c-.005 0-.007.006-.01.008l-.009.008-.008.01-.014.021-.007.002.001-.001v-.001.002l-.008.004a.004.004 0 0 1 0-.006l.002-.005-.009.003c-.002-.001.001-.003 0-.005l-.004-.002-.003.002q-.002.003-.004 0-.003 0-.004.002l-.002-.001v-.005l-.006-.005-.016.015q.003-.005.001-.008 0-.003.002-.004.008-.002.005-.01l-.012.007q0-.004-.003-.004v-.002h-.001q-.002.002-.005.002t-.005.002l-.007.002-.001-.005-.002-.005h-.006v-.002l.01-.016.02-.027q.012-.015.02-.03l.03-.038.014-.02.028-.032.02-.023.023-.024.02-.022.027-.033.012-.012.016-.015.022-.021.01-.01.009-.012.01-.011.013-.012.015-.018.008-.008.025-.021.005-.009.007-.013.055-.054.027-.025.015-.014.034-.028.05-.045.027-.021.003-.003q.018-.015.035-.032l.005-.004.03-.022.026-.021.031-.024a.1.1 0 0 1 .04-.025l.037-.027.046-.035.017-.01q.05-.032.1-.06l.034-.016.028-.015a.02.02 0 0 1 .013-.005q.003 0 .007-.003.002 0 .002.003 0 .006.005.01c.003.002.006-.002.009 0l-.002.002.003.001h.001l-.002.006h-.003v.001a.03.03 0 0 0 .007.023l.004.003c.004 0 .007-.005.01-.004.002-.004-.002-.004-.002-.006q.006 0 .008.006" fill="#fff"/><path d="M53.45 26.964h-.005l-.004.005.007.004c0-.003.004-.005.002-.009m-.014-.045h-.003v.003q0 .002.003.001zm-.86.812.003-.002zm.872-.733-.002.002q.002 0 .002-.002m-.023-.079.001.003zm-.38.371v-.001m.157.443c-.002.004-.008.002-.007.01l.005.008.004-.001v.006l-.002-.002q-.003 0-.002.003 0 .008.004.012v.002l-.01.005h-.004l-.002.002-.006.003-.012.005-.004.005a.01.01 0 0 1-.006.008l-.016.008-.003.004-.001.002-.008.006-.006.003-.017.01-.003.002-.003.003a.01.01 0 0 1-.01.005l-.01.003-.005.005-.003.004-.001.002-.007.003q-.004 0-.006.002l-.007.005-.008.007h-.003l-.009.005-.015.011-.016.012-.003.005h-.004l-.005.005-.008.005-.005.005-.006.005-.009.009v.001q0 .004-.005.003l-.004.004-.004.005-.007.004-.008.005-.011.008-.002.002a.03.03 0 0 1-.015.018l-.005.004-.014.016-.004.005-.004.008-.001.002a.03.03 0 0 0-.012.015l-.004.005-.002-.001-.006.006-.025.026-.011.014-.001.002q0 .005-.002.006l-.006.007-.002.002-.001-.002-.006.006v.002l-.002.005-.005.007-.01.011h-.001l.005-.008q-.003 0-.003.003l-.017.023-.013.02-.003.008q-.003.001-.005.004l-.004.004-.003.006-.005.011h-.005l-.005.002-.002-.003.001-.003h-.006l-.002-.002-.003-.002-.001.001h-.008q0-.003-.002-.004l-.005-.004-.008.008-.001-.005v-.002q.005 0 .002-.005l-.008.002-.004-.002v-.002l-.004.001-.003.001h-.005q-.002 0-.002-.003l-.003-.003-.005-.001v-.001l.004-.01.009-.014.008-.017.013-.021.007-.011.013-.018.01-.012.011-.014.01-.011.02-.025.007-.008.011-.011.005-.006q.001-.004.004-.006l.006-.006.006-.006.007-.01q0-.003.004-.005l.013-.01.002-.006q0-.005.002-.008a.2.2 0 0 1 .029-.029l.021-.02.017-.015.026-.023.015-.01.002-.002.018-.017.002-.002.016-.01.014-.012.016-.012.02-.01.002-.001.02-.014.025-.017.009-.005a1 1 0 0 1 .085-.043q.003-.003.008-.002h.003q.002 0 .002.002 0 .003.003.007l.005.001v.003h.002v.004h-.003a.03.03 0 0 0 .006.018q0 .003.002.003l.006-.001-.002-.005q.004.001.005.005" fill="#fff"/><path d="M53.204 27.744q-.003-.003-.005.001l.005.004zm-.01-.036h-.002v.002q0 .002.002.001zm-.415.43v-.001m.41-.431v.002zm-.19.201v-.001" fill="#fff"/><path d="M9.075 30.143a.03.03 0 0 0 0-.029l-.012.012c.005.004.004.015.012.017m.087.027.002-.006-.001-.004-.005-.002q-.003 0-.003.005.001.009.007.007m-.357.417-.006.005q.004-.001.006-.005m.213-.497v-.002zm.002.005q.001-.004-.002-.006 0 .004.002.006m.152.046h-.007zm-.04.086v-.002H9.13v.002zm-.084-.133q-.002-.001-.002.001l.001.002h.001zM9 30.084h-.002v.002H9zm-.94-.264.003-.004q-.003 0-.003.003m6.328-6.744a.024.024 0 0 0 0-.028l-.012.011c.005.004.004.015.012.017m.089.028.002-.006-.001-.004-.005-.001q-.003 0-.003.005.002.008.007.006m-.359.417-.007.004q.004 0 .007-.005m.214-.497v-.001m.001.007q0-.005-.003-.006zm-.869-.355.001-.002zm1.023.399h-.007zm-.04.087v-.002h-.002v.002zm-.083-.133q-.002-.001-.002.001l.001.002h.001zm-.047-.008h-.002v.002zm-.94-.266.002-.003q-.003 0-.002.003m21.046-1.46a.024.024 0 0 0 0-.028l-.012.011c.005.004.004.015.012.017m.089.028.003-.005-.002-.004-.004-.002q-.004 0-.004.005.002.008.007.007m-.359.415-.007.005q.005 0 .007-.005m.214-.497v-.001zm.001.006-.002-.006q-.001.003.002.006m-.869-.355v-.002h-.001zm1.022.4v-.002zm0 0h-.007zm-.04.085-.001-.002h-.002v.003zm-.084-.132q-.002-.002-.002 0l.001.002h.001zm-.049-.009v.002zm-.937-.264.002-.004q-.002 0-.002.003M17.054 27.59a.024.024 0 0 0 0-.03l-.012.012c.005.004.004.015.012.017m.088.028.003-.006-.002-.004-.004-.002q-.003 0-.004.006.002.008.007.006m-.356.416-.007.005q.004 0 .007-.005m.214-.491q.001-.004-.002-.006 0 .004.002.006m-.87-.356v-.002zm1.02.4h.002zm0 0h-.006zm-.041.087v-.003h-.002v.003zm-.083-.133q-.002-.002-.002 0v.002h.002zm-.987-.274.003-.003q-.003 0-.002.003m10.513-4.683a.024.024 0 0 0 0-.029l-.012.012c.005.004.004.015.012.017m.089.027.003-.006-.002-.004-.004-.001q-.003 0-.004.005.002.007.007.006m-.357.416-.007.005q.003.001.007-.005m.214-.496v-.002zm0 .005q.001-.004-.002-.006 0 .004.002.006m-.87-.355v-.002l-.001.001m1.022.401h-.007zm-.041.087v-.003h-.002v.003zm-.083-.134-.002.001.001.002h.001zm-.048-.009h-.001v.002h.002zm-.938-.265.002-.003q-.003 0-.002.003" fill="#070F2C"/><path fill-rule="evenodd" clip-rule="evenodd" d="m23.882 18.435.002.022a.1.1 0 0 1 .002.035q-.005-.003-.006-.002-.003 0-.005.005l-.002-.01-.004-.012a.03.03 0 0 0-.002.018l.001.001.002.002a.03.03 0 0 1 .002.022q-.004.015-.013.011l-.001.003v.005l.008.037.012.06.008.04.015.07.004.036q0 .027.006.052l.019.1q.003.013.003.029l.002.012.01.058.007.034a1 1 0 0 1 .018.11q0 .01.003.02l.003.025q0 .03.009.059l.01.06.005.045.002.038q0 .023.007.043.005.015.005.032l.002.02.006.061.003.032q0 .01.002.017l.007.056.01.109.008.117.001.024v.011l.003.019.003.039q0 .027.004.054l.002.039q0 .026.003.052l.001.033.002.045q-.003.016.002.028l.001.036v.037q0 .024.004.049l.004.051q0 .036.003.07l.001.014v.018a1 1 0 0 0 .006.172l.004.129v.086l.001.016a1 1 0 0 1 .005.153l.002.004.002.05.008.218.002.1v.122-.005l.001.003v.058l-.002.03v.055l-.002.038-.001.05v.006l.002-.04v-.018.025l-.008.146-.002.027-.016.143-.006.046-.004.024-.002.015-.005.034-.007.04-.011.055-.004.019-.003.018v-.005l.001-.002v.002l-.001.005-.002.008v.002l.005-.018-.005.025.001-.005.002-.004-.002.011-.002.009v.005l-.002.004.002-.004.001-.004q0-.003.001-.001l-.016.063.006-.021.004-.013.008-.032-.009.037s.003-.007.001 0l.002-.008v.001l-.004.016-.003.014-.004.016.006-.017-.003.01.002-.004.015-.055q.01-.033.017-.067l.008-.032.009-.04q.008-.032.013-.064.014-.07.024-.143l.01-.073.001-.008q.008-.06.012-.12l.007-.088.005-.1.003-.086.004-.126v-.381a1 1 0 0 1 .001-.103v-.122l.002-.044q.001-.112-.001-.226l-.002-.103-.003-.06-.004-.128-.004-.1-.003-.093-.006-.103v-.01l-.004-.064-.003-.074v-.018l-.009-.105-.007-.098-.01-.112a1 1 0 0 0-.016-.132l-.016-.132-.016-.132-.005-.031-.01-.056-.058-.317-.021-.105-.015-.08-.001-.005a.1.1 0 0 0-.01-.038l-.003-.02q-.003-.004-.004 0-.003.009-.008.007-.004-.003-.005-.01l-.004-.01v.008l-.002-.003-.002-.003v.014l.003.007v.004q-.006.027-.02.024l-.004-.003-.007-.032q0-.006.002-.004h.003c-.003-.01-.005-.008-.008-.006zm.185 1.639v-.001.007q0 .003.001 0v-.006m-.186 7.226.002.023a.1.1 0 0 1 .002.035q-.005-.003-.006-.002-.003 0-.005.005l-.002-.01q-.001-.008-.004-.012a.03.03 0 0 0-.002.018l.001.001.002.002a.03.03 0 0 1 .002.022c-.003.008-.007.015-.013.011l-.001.003v.005l.008.037.012.06.008.04.015.07.004.035q0 .027.006.052l.019.1.003.03.002.012.01.057.007.035a1 1 0 0 1 .018.11q0 .01.003.02l.003.025q0 .03.009.059a.6.6 0 0 1 .017.143q0 .023.007.043.005.015.005.032l.002.02.006.06.005.05.007.056.01.109.008.116.001.025v.011l.003.019.003.039q0 .027.004.054l.002.039q0 .026.003.052l.001.033q0 .019.002.037v.008q-.003.016.002.028l.001.036v.037q0 .024.004.048l.004.052q0 .035.003.07l.001.014v.018a1 1 0 0 0 .006.172l.004.129v.086l.001.015a1 1 0 0 1 .005.154l.002.004.002.05.008.218.002.1v.122-.005l.001.003v.057l-.002.03v.056l-.002.038-.001.05v.006l.002-.04v-.018.025l-.008.146-.002.027-.016.143-.006.046-.004.023-.002.016-.005.034-.007.04-.011.055-.004.019-.003.018v-.005l.001-.002v.002l-.001.005-.002.007v.003l.005-.018-.005.025.001-.005.002-.004-.002.011-.002.008v.006l-.002.004.002-.005.001-.004h.001l-.016.062.006-.02.004-.013.008-.032-.009.037s.003-.007.001 0l.002-.008v.001l-.004.016-.003.014-.004.016.006-.018-.003.01.002-.003.015-.055q.01-.034.017-.067l.008-.032.009-.04q.008-.033.013-.064.014-.071.024-.143l.01-.073.001-.008q.008-.06.012-.12l.007-.089.005-.1.003-.085.004-.126v-.381a1 1 0 0 1 .001-.103v-.122l.002-.044q.001-.112-.001-.226l-.002-.103-.003-.061-.004-.127-.004-.1-.003-.093-.006-.103v-.01l-.004-.064-.004-.093-.008-.105-.007-.097-.01-.112a1 1 0 0 0-.016-.132l-.016-.132-.016-.132-.005-.031q-.001-.018-.005-.035l-.004-.02-.059-.318-.021-.105-.015-.08-.001-.005a.1.1 0 0 0-.01-.038l-.003-.02q-.003-.004-.004 0-.003.009-.008.006-.004-.003-.005-.01 0-.006-.004-.01v.009l-.002-.003-.002-.003v.014l.003.007v.003c-.004.02-.01.025-.02.024q-.001.001-.004-.002l-.007-.032q0-.006.002-.004h.003c-.003-.01-.005-.008-.008-.007zm.186 1.639v.007q0 .003 0 0z" fill="#070F2C"/><defs><clipPath id="a"><path d="M12.38 23.304c0-.4.324-.724.724-.724h22.077c.4 0 .723.324.723.724v2.895c0 .4-.324.724-.723.724H13.104a.724.724 0 0 1-.724-.724z" fill="#fff"/></clipPath><clipPath id="b"><path d="M12.38 32.35c0-.399.324-.723.724-.723h22.077c.4 0 .723.324.723.724v2.895c0 .4-.324.724-.723.724H13.104a.724.724 0 0 1-.724-.724z" fill="#fff"/></clipPath></defs></svg>