<svg xmlns="http://www.w3.org/2000/svg" width="24" height="24" viewBox="0 0 24 24" fill="none"><path fill-rule="evenodd" clip-rule="evenodd" d="M6.25 16A2.75 2.75 0 0 0 9 18.75h10A2.75 2.75 0 0 0 21.75 16V7.828c0-.729-.29-1.428-.805-1.944l-3.829-3.829a2.75 2.75 0 0 0-1.944-.805H9A2.75 2.75 0 0 0 6.25 4zM9 17.25c-.69 0-1.25-.56-1.25-1.25V4c0-.69.56-1.25 1.25-1.25h5.25V6A2.75 2.75 0 0 0 17 8.75h3.25V16c0 .69-.56 1.25-1.25 1.25zm11.108-10H17c-.69 0-1.25-.56-1.25-1.25V2.892q.169.087.305.224l3.829 3.829q.136.136.224.305" fill="#070F2C"/><path fill-rule="evenodd" clip-rule="evenodd" d="M2.25 20A2.75 2.75 0 0 0 5 22.75h10A2.75 2.75 0 0 0 17.75 20v-2a.75.75 0 0 0-1.5 0v2c0 .69-.56 1.25-1.25 1.25H5c-.69 0-1.25-.56-1.25-1.25V8c0-.69.56-1.25 1.25-1.25h2a.75.75 0 0 0 0-1.5H5A2.75 2.75 0 0 0 2.25 8z" fill="#070F2C"/></svg>