<svg xmlns="http://www.w3.org/2000/svg" width="24" height="24" viewBox="0 0 24 24" fill="none"><path fill-rule="evenodd" clip-rule="evenodd" d="M12.25 3a.75.75 0 0 1 .75-.75h6A2.75 2.75 0 0 1 21.75 5v10.172c0 .729-.29 1.428-.805 1.944l-3.829 3.829a2.75 2.75 0 0 1-1.944.805H5A2.75 2.75 0 0 1 2.25 19v-7a.75.75 0 0 1 1.5 0v7c0 .69.56 1.25 1.25 1.25h9.25V17A2.75 2.75 0 0 1 17 14.25h3.25V5c0-.69-.56-1.25-1.25-1.25h-6a.75.75 0 0 1-.75-.75m7.858 12.75H17c-.69 0-1.25.56-1.25 1.25v3.108q.169-.087.305-.224l3.829-3.829q.136-.136.224-.305" fill="#070F2C"/><path fill-rule="evenodd" clip-rule="evenodd" d="M6 2.25a.75.75 0 0 1 .75.75v4.19l1.72-1.72a.75.75 0 0 1 1.06 1.06l-3 3a.75.75 0 0 1-1.06 0l-3-3a.75.75 0 0 1 1.06-1.06l1.72 1.72V3A.75.75 0 0 1 6 2.25" fill="#070F2C"/></svg>