<svg width="16" height="18" viewBox="0 0 16 18" fill="none" xmlns="http://www.w3.org/2000/svg">
<path fill-rule="evenodd" clip-rule="evenodd" d="M4.66665 0.875C5.01182 0.875 5.29165 1.15482 5.29165 1.5V2.54167H10.7083V1.5C10.7083 1.15482 10.9881 0.875 11.3333 0.875C11.6785 0.875 11.9583 1.15482 11.9583 1.5V2.54167H13C14.2656 2.54167 15.2916 3.56768 15.2916 4.83333V14.8333C15.2916 16.099 14.2656 17.125 13 17.125H2.99998C1.73433 17.125 0.708313 16.099 0.708313 14.8333V4.83333C0.708313 3.56768 1.73433 2.54167 2.99998 2.54167H4.04165V1.5C4.04165 1.15482 4.32147 0.875 4.66665 0.875ZM2.99998 3.79167C2.42468 3.79167 1.95831 4.25804 1.95831 4.83333V5.875H14.0416V4.83333C14.0416 4.25804 13.5753 3.79167 13 3.79167H2.99998ZM14.0416 7.125H1.95831V14.8333C1.95831 15.4086 2.42468 15.875 2.99998 15.875H13C13.5753 15.875 14.0416 15.4086 14.0416 14.8333V7.125Z" fill="#070F2C"/>
</svg>
