<svg width="20" height="20" viewBox="0 0 20 20" fill="none" xmlns="http://www.w3.org/2000/svg"><path fill-rule="evenodd" clip-rule="evenodd" d="M6.93755 5.20801H3.33337C2.9882 5.20801 2.70837 5.48783 2.70837 5.83301C2.70837 6.17819 2.9882 6.45801 3.33337 6.45801H4.37504V14.9997C4.37504 16.2653 5.40105 17.2913 6.66671 17.2913H13.3334C14.599 17.2913 15.625 16.2653 15.625 14.9997V6.45801H16.6667C17.0119 6.45801 17.2917 6.17819 17.2917 5.83301C17.2917 5.48783 17.0119 5.20801 16.6667 5.20801H13.0625C12.773 3.78161 11.5119 2.70801 10 2.70801C8.48819 2.70801 7.2271 3.78161 6.93755 5.20801ZM8.23173 5.20801H11.7683C11.511 4.47976 10.8164 3.95801 10 3.95801C9.18365 3.95801 8.48913 4.47976 8.23173 5.20801ZM14.375 6.45801V14.9997C14.375 15.575 13.9087 16.0413 13.3334 16.0413H6.66671C6.09141 16.0413 5.62504 15.575 5.62504 14.9997V6.45801H14.375Z" fill="#616189"/></svg>