<svg width="24" height="24" viewBox="0 0 24 24" fill="none" xmlns="http://www.w3.org/2000/svg"><path fill-rule="evenodd" clip-rule="evenodd" d="M5.25 19C5.25 20.5188 6.48122 21.75 8 21.75L16 21.75C17.5188 21.75 18.75 20.5188 18.75 19V8.82843C18.75 8.09908 18.4603 7.39961 17.9445 6.88388L14.1161 3.05546C13.6004 2.53973 12.9009 2.25 12.1716 2.25H8C6.48122 2.25 5.25 3.48122 5.25 5L5.25 19ZM8 20.25C7.30964 20.25 6.75 19.6904 6.75 19L6.75 5C6.75 4.30964 7.30964 3.75 8 3.75H11.25V7C11.25 8.51878 12.4812 9.75 14 9.75H17.25V19C17.25 19.6904 16.6904 20.25 16 20.25L8 20.25ZM17.1081 8.25H14C13.3096 8.25 12.75 7.69036 12.75 7V3.89188C12.8616 3.95014 12.9648 4.02545 13.0555 4.11612L16.8839 7.94454C16.9746 8.03522 17.0499 8.13838 17.1081 8.25Z" fill="#616189"/></svg>