<svg width="24" height="24" viewBox="0 0 24 24" fill="none" xmlns="http://www.w3.org/2000/svg"><path fill-rule="evenodd" clip-rule="evenodd" d="M18 14.25a.75.75 0 0 1 .75.75v4.19l1.72-1.72a.75.75 0 1 1 1.06 1.06l-3 3a.75.75 0 0 1-1.06 0l-3-3a.75.75 0 1 1 1.06-1.06l1.72 1.72V15a.75.75 0 0 1 .75-.75Z" fill="#B3B2B8"/><path fill-rule="evenodd" clip-rule="evenodd" d="M6 20.25c-.69 0-1.25-.56-1.25-1.25V5c0-.69.56-1.25 1.25-1.25h7.25V7A2.75 2.75 0 0 0 16 9.75h3.25V11a.75.75 0 0 0 1.5 0V8.828c0-.729-.29-1.428-.805-1.944l-3.829-3.829a2.75 2.75 0 0 0-1.944-.805H6A2.75 2.75 0 0 0 3.25 5v14A2.75 2.75 0 0 0 6 21.75h6a.75.75 0 0 0 0-1.5H6Zm13.108-12H16c-.69 0-1.25-.56-1.25-1.25V3.892c.112.058.215.133.306.224l3.828 3.829c.09.09.166.193.224.305Z" fill="#B3B2B8"/></svg>