<svg xmlns="http://www.w3.org/2000/svg" width="16" height="16" viewBox="0 0 16 16" fill="none"><path fill-rule="evenodd" clip-rule="evenodd" d="M8 10.5a.5.5 0 0 0 .5-.5V8a.5.5 0 0 0-1 0v2a.5.5 0 0 0 .5.5m0-4a.5.5 0 1 0-.5-.5.5.5 0 0 0 .5.5" fill="#070F2C"/><path fill-rule="evenodd" clip-rule="evenodd" d="M5.61 2.5a.17.17 0 0 0-.118.049L2.549 5.492a.17.17 0 0 0-.049.117v4.781q.001.07.049.118l2.943 2.943a.17.17 0 0 0 .117.049h4.781a.17.17 0 0 0 .118-.049l2.943-2.943a.17.17 0 0 0 .049-.117V5.608a.17.17 0 0 0-.049-.117l-2.943-2.943a.17.17 0 0 0-.117-.049zm-.825-.658c.218-.22.515-.342.824-.342h4.781c.31 0 .607.123.825.342l2.943 2.943c.22.218.342.515.342.824v4.781c0 .31-.123.607-.342.825l-2.942 2.943a1.17 1.17 0 0 1-.825.342H5.608c-.309 0-.606-.123-.824-.342l-2.943-2.942a1.17 1.17 0 0 1-.342-.825V5.608c0-.309.123-.606.342-.824z" fill="#070F2C"/></svg>