<svg width="20" height="20" viewBox="0 0 20 20" fill="none" xmlns="http://www.w3.org/2000/svg">
<path fill-rule="evenodd" clip-rule="evenodd" d="M10 3.125C6.20304 3.125 3.125 6.20304 3.125 10C3.125 13.797 6.20304 16.875 10 16.875C13.797 16.875 16.875 13.797 16.875 10C16.875 6.20304 13.797 3.125 10 3.125ZM1.875 10C1.875 5.51269 5.51269 1.875 10 1.875C14.4873 1.875 18.125 5.51269 18.125 10C18.125 14.4873 14.4873 18.125 10 18.125C5.51269 18.125 1.875 14.4873 1.875 10Z" fill="#616189"/>
<path fill-rule="evenodd" clip-rule="evenodd" d="M10 13.125C10.3452 13.125 10.625 12.8452 10.625 12.5V10C10.625 9.65482 10.3452 9.375 10 9.375C9.65482 9.375 9.375 9.65482 9.375 10V12.5C9.375 12.8452 9.65482 13.125 10 13.125Z" fill="#616189"/>
<path fill-rule="evenodd" clip-rule="evenodd" d="M10 8.125C10.3452 8.125 10.625 7.84518 10.625 7.5V7.49992C10.625 7.15474 10.3452 6.87492 10 6.87492C9.65482 6.87492 9.375 7.15474 9.375 7.49992V7.5C9.375 7.84518 9.65482 8.125 10 8.125Z" fill="#616189"/>
</svg>
