<svg xmlns="http://www.w3.org/2000/svg" width="24" height="24" viewBox="0 0 24 24" fill="none"><path fill-rule="evenodd" clip-rule="evenodd" d="M5.47 4.47a.75.75 0 0 1 1.06 0l2 2a.75.75 0 0 1-1.06 1.06l-.72-.72V10a.75.75 0 0 1-1.5 0V6.81l-.72.72a.75.75 0 0 1-1.06-1.06zM12 7.75a.75.75 0 0 1 0-1.5h8a.75.75 0 0 1 0 1.5zM11.25 12a.75.75 0 0 1 .75-.75h8a.75.75 0 0 1 0 1.5h-8a.75.75 0 0 1-.75-.75M6 13.25a.75.75 0 0 1 .75.75v3.19l.72-.72a.75.75 0 0 1 1.06 1.06l-2 2a.75.75 0 0 1-1.06 0l-2-2a.75.75 0 1 1 1.06-1.06l.72.72V14a.75.75 0 0 1 .75-.75m14 4.5h-8a.75.75 0 0 1 0-1.5h8a.75.75 0 0 1 0 1.5" fill="#070F2C"/></svg>