<svg width="961" height="200" viewBox="0 0 961 200" fill="none" xmlns="http://www.w3.org/2000/svg">
    <path
        d="M630.918 150.623h-16.149l-10.16-26.266h-42.254l-10.586 26.266h-15.722l38.36-95.738c4.362-10.762 14.362-10.262 18.74 0zm-31.55-39.97-15.01-39.29h-1.142l-15.447 39.29zM277 150.735v-15.141l45.824-69.918h-43.832V49.87h64.95v15.142l-45.823 70.05h47.151v15.673zm121.86 1.727c-20.72 0-35.331-14.611-35.331-34.534s14.611-34.533 35.331-34.533 35.065 14.61 35.065 34.533v5.579h-53.793c2.125 9.563 9.43 14.61 18.728 14.61 7.039 0 12.219-1.992 15.54-6.242h16.868c-4.914 12.485-16.868 20.587-32.408 20.587m-18.33-41.573h36.659c-2.523-8.767-9.696-13.15-18.329-13.15-8.899 0-15.806 4.516-18.33 13.15m71.71 39.846V116.6c0-21.916 13.016-33.205 32.408-33.205s32.409 11.157 32.409 33.205v34.135h-15.806V116.6c0-12.485-6.641-18.462-16.603-18.462s-16.603 5.977-16.603 18.462v34.135zm225.101 1.727c-20.853 0-35.463-14.345-35.463-35.198 0-22.447 16.735-33.87 32.674-33.87 9.43 0 17.267 3.985 21.916 11.29V54.432h15.805v62.965c0 21.251-14.344 35.065-34.932 35.065m-.133-14.743c11.556 0 19.26-8.235 19.26-19.791 0-11.555-7.704-19.79-19.26-19.79-11.555 0-19.392 8.235-19.392 19.79s7.837 19.791 19.392 19.791m56.104 13.016v-37.456c0-20.587 11.954-29.884 27.494-29.884 9.829 0 17.931 4.117 22.713 11.82 4.649-7.703 12.751-11.82 22.712-11.82 15.54 0 27.494 9.297 27.494 29.884v37.456H817.92v-37.456c0-10.758-5.579-15.141-13.283-15.141-7.57 0-13.149 4.516-13.149 15.141v37.456h-15.806v-37.456c0-10.625-5.711-15.141-13.282-15.141-7.704 0-13.282 4.383-13.282 15.141v37.456zM864.874 76.62c-6.11 0-10.493-4.383-10.493-10.492s4.383-10.626 10.493-10.626 10.493 4.516 10.493 10.626-4.383 10.493-10.493 10.493m-7.969 74.115V85.121h15.806v65.614zm39.046-.001V116.6c0-21.916 13.017-33.205 32.409-33.205s32.408 11.157 32.408 33.205v34.135h-15.805V116.6c0-12.485-6.642-18.462-16.603-18.462s-16.603 5.977-16.603 18.462v34.135z"
        fill="#000" />
    <path
        d="m104.035 156.511-51.337-13.828c-.932-.251-1.44 1.049-.584 1.496l29.328 15.298a.808.808 0 0 1-.055 1.459l-25.505 10.931c-.69.295-.638 1.29.078 1.513l62.186 19.369c.902.281 1.47-.948.673-1.454l-34.655-21.953a.808.808 0 0 1 .072-1.406l19.948-9.922c.666-.331.569-1.31-.149-1.503"
        fill="url(#a)" />
    <path fill-rule="evenodd" clip-rule="evenodd"
        d="M88.174 17.635c-10.746 0-21.427 5.968-29.71 18.37H38.187C48.813 14.404 66.522 0 88.174 0c9.701 0 19.686 2.395 28.795 8.312 7.521 4.885 14.11 11.953 19.403 21.401 17.355-2.531 35.189 1.95 48.873 12.18 15.788 11.803 25.841 31.132 23.387 55.255-3.79 37.27-36.438 55.059-62.695 54.212-9.42-.304-22.172-3.078-33.776-11.418-11.806-8.486-21.794-22.294-26.02-43.426-2.884-14.42-9.378-22.304-15.753-26.718-6.614-4.58-13.775-5.872-18.219-5.872-16.825 0-34.534 12.595-34.534 37.474 0 12.635 4.496 20.068 9.8 24.643 5.608 4.837 12.905 7.121 18.999 7.731l-1.755 17.547c-8.602-.86-19.675-4.087-28.762-11.924C6.526 131.297 0 118.89 0 101.4c0-35.374 26.378-55.109 52.17-55.109 7.313 0 18.153 2.014 28.256 9.008 10.34 7.159 19.278 19.112 23.007 37.758 3.406 17.03 11.057 26.842 19.02 32.565 8.166 5.87 17.316 7.895 24.053 8.113 19.299.622 41.946-12.45 44.582-38.37 1.806-17.76-5.408-31.129-16.402-39.348-11.23-8.396-26.613-11.543-40.935-7.807l-7.199 1.878-3.062-6.78c-4.557-10.091-10.255-16.393-16.127-20.208-5.88-3.819-12.428-5.465-19.19-5.465"
        fill="url(#b)" />
    <defs>
        <linearGradient id="a" x1="64.335" y1="148.125" x2="106.385" y2="198.892"
            gradientUnits="userSpaceOnUse">
            <stop stop-color="#254DDA" />
            <stop offset="1" stop-color="#4971FF" />
        </linearGradient>
        <linearGradient id="b" x1="51.032" y1="22.06" x2="147.921" y2="167.078"
            gradientUnits="userSpaceOnUse">
            <stop stop-color="#254DDA" />
            <stop offset="1" stop-color="#4971FF" />
        </linearGradient>
    </defs>
</svg>