<svg width="16" height="16" viewBox="0 0 16 16" fill="currentColor" xmlns="http://www.w3.org/2000/svg">
<path fill-rule="evenodd" clip-rule="evenodd" d="M6.66667 7.99996C6.66667 7.26358 7.25967 6.66663 7.99117 6.66663H8.00883C8.74033 6.66663 9.33333 7.26358 9.33333 7.99996C9.33333 8.73634 8.74033 9.33329 8.00883 9.33329H7.99117C7.25967 9.33329 6.66667 8.73634 6.66667 7.99996Z" fill="currentColor"/>
<path fill-rule="evenodd" clip-rule="evenodd" d="M2.66667 7.99996C2.66667 7.26358 3.25967 6.66663 3.99117 6.66663H4.00883C4.74033 6.66663 5.33333 7.26358 5.33333 7.99996C5.33333 8.73634 4.74033 9.33329 4.00883 9.33329H3.99117C3.25967 9.33329 2.66667 8.73634 2.66667 7.99996Z" fill="currentColor"/>
<path fill-rule="evenodd" clip-rule="evenodd" d="M10.6667 7.99996C10.6667 7.26358 11.2597 6.66663 11.9912 6.66663H12.0088C12.7403 6.66663 13.3333 7.26358 13.3333 7.99996C13.3333 8.73634 12.7403 9.33329 12.0088 9.33329H11.9912C11.2597 9.33329 10.6667 8.73634 10.6667 7.99996Z" fill="currentColor"/>
</svg>
