<svg width="14" height="14" viewBox="0 0 14 14" fill="none" xmlns="http://www.w3.org/2000/svg">
<path fill-rule="evenodd" clip-rule="evenodd" d="M7 0.541626C7.34518 0.541626 7.625 0.821448 7.625 1.16663V6.37496H12.8333C13.1785 6.37496 13.4583 6.65478 13.4583 6.99996C13.4583 7.34514 13.1785 7.62496 12.8333 7.62496H7.625V12.8333C7.625 13.1785 7.34518 13.4583 7 13.4583C6.65482 13.4583 6.375 13.1785 6.375 12.8333V7.62496H1.16666C0.821486 7.62496 0.541664 7.34514 0.541664 6.99996C0.541664 6.65478 0.821486 6.37496 1.16666 6.37496H6.375V1.16663C6.375 0.821448 6.65482 0.541626 7 0.541626Z" fill="#070F2C"/>
</svg>
