<svg width="24" height="24" viewBox="0 0 24 24" fill="none" xmlns="http://www.w3.org/2000/svg"><path fill-rule="evenodd" clip-rule="evenodd" d="M11.53 3.47a.75.75 0 0 0-1.06 0l-4 4a.75.75 0 0 0 0 1.06l4 4a.75.75 0 1 0 1.06-1.06L8.81 8.75H11c.88 0 2.217.27 3.312 1.059 1.057.76 1.938 2.035 1.938 4.191 0 2.156-.881 3.43-1.938 4.191-1.095.789-2.432 1.059-3.312 1.059a.75.75 0 0 0 0 1.5c1.12 0 2.783-.33 4.188-1.341 1.443-1.04 2.562-2.765 2.562-5.409 0-2.644-1.119-4.37-2.562-5.409C13.783 7.58 12.12 7.25 11 7.25H8.81l2.72-2.72a.75.75 0 0 0 0-1.06Z" fill="currentColor"/></svg>