<svg width="24" height="24" viewBox="0 0 24 24" fill="none" xmlns="http://www.w3.org/2000/svg"><path fill-rule="evenodd" clip-rule="evenodd" d="M11 4.75a6.25 6.25 0 1 0 0 12.5 6.25 6.25 0 0 0 0-12.5ZM3.25 11a7.75 7.75 0 1 1 13.735 4.924l3.545 3.546a.75.75 0 1 1-1.06 1.06l-3.546-3.545A7.75 7.75 0 0 1 3.25 11Zm4.812-3.809C9.05 6.48 10.213 6.25 11 6.25a.75.75 0 0 1 0 1.5c-.547 0-1.383.17-2.062.659-.64.46-1.188 1.235-1.188 2.591a.75.75 0 0 1-1.5 0c0-1.844.785-3.07 1.812-3.809Z" fill="currentColor"/></svg>