<svg xmlns="http://www.w3.org/2000/svg" width="24" height="24" viewBox="0 0 24 24" fill="none">
  <path fill-rule="evenodd" clip-rule="evenodd" d="M9.28033 5.21967C8.98744 4.92678 8.51256 4.92678 8.21967 5.21967L5.21967 8.21967C4.92678 8.51256 4.92678 8.98744 5.21967 9.28033C5.51256 9.57322 5.98744 9.57322 6.28033 9.28033L8 7.56066V17.75C8 18.1642 8.33579 18.5 8.75 18.5C9.16421 18.5 9.5 18.1642 9.5 17.75V7.56066L11.2197 9.28033C11.5126 9.57322 11.9874 9.57322 12.2803 9.28033C12.5732 8.98744 12.5732 8.51256 12.2803 8.21967L9.28033 5.21967ZM15.2197 18.2803C15.5126 18.5732 15.9874 18.5732 16.2803 18.2803L19.2803 15.2803C19.5732 14.9874 19.5732 14.5126 19.2803 14.2197C18.9874 13.9268 18.5126 13.9268 18.2197 14.2197L16.5 15.9393L16.5 5.75C16.5 5.33579 16.1642 5 15.75 5C15.3358 5 15 5.33579 15 5.75L15 15.9393L13.2803 14.2197C12.9874 13.9268 12.5126 13.9268 12.2197 14.2197C11.9268 14.5126 11.9268 14.9874 12.2197 15.2803L15.2197 18.2803Z" fill="#555580"/>
</svg>