<svg width="24" height="24" viewBox="0 0 24 24" fill="none" xmlns="http://www.w3.org/2000/svg"><path fill-rule="evenodd" clip-rule="evenodd" d="M16.47 5.47a.75.75 0 0 1 1.06 0l3 3a.75.75 0 0 1-1.06 1.06l-1.72-1.72V18a.75.75 0 0 1-1.5 0V7.81l-1.72 1.72a.75.75 0 1 1-1.06-1.06l3-3ZM3.25 8A.75.75 0 0 1 4 7.25h6a.75.75 0 0 1 0 1.5H4A.75.75 0 0 1 3.25 8Zm0 4a.75.75 0 0 1 .75-.75h6a.75.75 0 0 1 0 1.5H4a.75.75 0 0 1-.75-.75Zm0 4a.75.75 0 0 1 .75-.75h6a.75.75 0 0 1 0 1.5H4a.75.75 0 0 1-.75-.75Z" fill="#254DDA"/></svg>