<svg width="18" height="18" viewBox="0 0 18 18" fill="none" xmlns="http://www.w3.org/2000/svg"><g fill-rule="evenodd" clip-rule="evenodd"><path d="M4.625 6.746a.562.562 0 1 1-.796-.795L5.951 3.83c.22-.22.575-.22.795 0l2.121 2.12a.562.562 0 1 1-.795.795L6.91 5.586v7.127a.563.563 0 0 1-1.125 0V5.585l-1.16 1.161Zm7.027-2.02c.31 0 .562.251.562.562v7.127l1.161-1.16a.562.562 0 1 1 .796.795l-2.122 2.121a.562.562 0 0 1-.795 0L9.133 12.05a.563.563 0 0 1 .795-.796l1.161 1.161V5.288c0-.31.252-.562.563-.562Z" fill="#8A7CDB"/><path d="M4.625 6.747a.562.562 0 1 1-.796-.795L5.95 3.83c.22-.22.576-.22.796 0l2.121 2.122a.562.562 0 1 1-.795.795L6.91 5.587v7.126a.562.562 0 1 1-1.125 0V5.586l-1.16 1.161Z" fill="#B3B2B8"/></g></svg>