<svg xmlns="http://www.w3.org/2000/svg" width="24" height="24" viewBox="0 0 24 24" fill="none"><path fill-rule="evenodd" clip-rule="evenodd" d="M3.52 6.165C3.093 4.489 4.55 3.25 6 3.25h12c1.449 0 2.906 1.239 2.48 2.915a8.77 8.77 0 0 1-4.701 5.729c-.641.307-1.03.858-1.03 1.404V19A1.75 1.75 0 0 1 13 20.75h-2A1.75 1.75 0 0 1 9.25 19v-5.702c0-.546-.387-1.097-1.028-1.404a8.77 8.77 0 0 1-4.701-5.73M6 4.75c-.76 0-1.145.58-1.027 1.045A7.27 7.27 0 0 0 8.87 10.54c1.006.482 1.88 1.479 1.88 2.757V19c0 .138.113.25.25.25h2a.25.25 0 0 0 .25-.25v-5.702c0-1.278.876-2.275 1.881-2.757a7.27 7.27 0 0 0 3.896-4.746C19.145 5.33 18.76 4.75 18 4.75z" fill="#070F2C"/></svg>