<svg xmlns="http://www.w3.org/2000/svg" width="24" height="24" viewBox="0 0 24 24" fill="none"><path fill-rule="evenodd" clip-rule="evenodd" d="M8.25 6a3.75 3.75 0 1 1 7.5 0v5a3.75 3.75 0 1 1-7.5 0zM12 13.25A2.25 2.25 0 0 0 14.25 11V6a2.25 2.25 0 0 0-4.5 0v5A2.25 2.25 0 0 0 12 13.25" fill="#070F2C"/><path fill-rule="evenodd" clip-rule="evenodd" d="M5 9.25a.75.75 0 0 1 .75.75v1a6.25 6.25 0 1 0 12.5 0v-1a.75.75 0 0 1 1.5 0v1a7.75 7.75 0 0 1-7 7.714V21a.75.75 0 0 1-1.5 0v-2.286a7.75 7.75 0 0 1-7-7.714v-1A.75.75 0 0 1 5 9.25" fill="#070F2C"/></svg>