<svg width="24" height="24" viewBox="0 0 24 24" fill="none" xmlns="http://www.w3.org/2000/svg"><g fill-rule="evenodd" clip-rule="evenodd" fill="#616189"><path d="M8 2.25a.75.75 0 0 1 .75.75v1.25h6.5V3a.75.75 0 0 1 1.5 0v1.25H18A2.75 2.75 0 0 1 20.75 7v12A2.75 2.75 0 0 1 18 21.75H6A2.75 2.75 0 0 1 3.25 19V7A2.75 2.75 0 0 1 6 4.25h1.25V3A.75.75 0 0 1 8 2.25Zm-2 3.5c-.69 0-1.25.56-1.25 1.25v1.25h14.5V7c0-.69-.56-1.25-1.25-1.25H6Zm13.25 4H4.75V19c0 .69.56 1.25 1.25 1.25h12c.69 0 1.25-.56 1.25-1.25V9.75Z"/><path d="M11.25 13a.75.75 0 0 1 .75-.75h.01a.75.75 0 0 1 0 1.5H12a.75.75 0 0 1-.75-.75Zm-4 0a.75.75 0 0 1 .75-.75h.01a.75.75 0 0 1 0 1.5H8a.75.75 0 0 1-.75-.75Zm8 0a.75.75 0 0 1 .75-.75h.01a.75.75 0 0 1 0 1.5H16a.75.75 0 0 1-.75-.75Zm-4 4a.75.75 0 0 1 .75-.75h.01a.75.75 0 0 1 0 1.5H12a.75.75 0 0 1-.75-.75Zm-4 0a.75.75 0 0 1 .75-.75h.01a.75.75 0 0 1 0 1.5H8a.75.75 0 0 1-.75-.75Z"/></g></svg>